M48
;Layer_Color=9474304
;FILE_FORMAT=2:5
INCH,LZ
;TYPE=PLATED
T1F00S00C0.01200
T2F00S00C0.01575
T3F00S00C0.01800
T4F00S00C0.06693
T5F00S00C0.11811
;TYPE=NON_PLATED
T6F00S00C0.06693
T7F00S00C0.15748
%
T01
X0007539Y-0059961
X0015039Y-0044961
X0030039
X0020472Y-0034252
X0007539Y-0029961
X0011811Y-0022047
X0024409Y-0018504
X0024803Y-0003937
X0011024Y-0002995
X-0001575Y-0014173
X0000039Y-0044961
X0037539Y-0059961
X0052539
X0060039Y-0044961
X005748Y-0029921
X0067539Y-0029961
X0060236Y-0020079
X0060039Y-0014961
X0062205Y-0010236
X0049892Y-0007012
X004768Y-0016788
X0037402Y-0026772
X-0007461Y-0029961
X-0004331Y-0037008
X-0005512Y-0041732
X-0009449Y-0046063
X-0014567Y-0050787
X-0022047Y-005
X-0022461Y-0059961
X-0037461
X-0052461
X-0059961Y-0044961
X-0052461Y-0029961
X-0067461
X-0029961Y-0044961
X-0037461Y0000039
X-0052461
X-0051181Y0013248
Y0024547
X-0052461Y0030039
X-0037461
X-0029961Y0045039
X-0037461Y0060039
X-0052461
X-0059961Y0045039
X-0067461Y0030039
X0002756Y002126
X0006299Y0020866
X0014567Y0022835
X0017323Y0025591
X0013112Y0010749
Y0006573
X0008936
Y0010749
X0030709Y0002756
X0052362
X0064961Y-0000787
X0067539Y0030039
X0052539
X0047638Y0024409
X0035433Y0023228
X0044094Y0012992
X00275Y00415
X0030039Y0045039
X0025984Y0048819
X0011024Y0046063
X0025591Y0066535
X0037539Y0060039
X0052539
X0060039Y0045039
T02
X0063055Y-0073736
X0067842Y-0074622
X0072235Y-0072527
X0074558Y-0068248
X0073922Y-0063422
X0070571Y-0059891
X0065785Y-0059004
X0061391Y-00611
X0059068Y-0065378
X0059704Y-0070205
X-0059891Y-0070571
X-0059004Y-0065785
X-00611Y-0061391
X-0065378Y-0059068
X-0070205Y-0059704
X-0073736Y-0063055
X-0074622Y-0067842
X-0072527Y-0072235
X-0068248Y-0074558
X-0063422Y-0073922
X-0065785Y0059004
X-0070571Y0059891
X-0073922Y0063422
X-0074558Y0068248
X-0072235Y0072527
X-0067842Y0074622
X-0063055Y0073736
X-0059704Y0070205
X-0059068Y0065378
X-0061391Y00611
X00611Y0061391
X0059004Y0065785
X0059891Y0070571
X0063422Y0073922
X0068248Y0074558
X0072527Y0072235
X0074622Y0067842
X0073736Y0063055
X0070205Y0059704
X0065378Y0059068
T03
X-0012806Y-00265
X-0022047Y-0007087
X-0009Y0031
X00025Y005
X00375Y0013
T04
X0030511Y-0059464
X0025779Y-0025779
X-0004371Y-0004371
X-0012806Y-0063305
X-0063584Y-0014198
X-0025779Y0025779
X-0030511Y0059464
X0025779Y0025779
X0063584Y0014198
T05
X0066929Y-0066929
X-0066929
Y0066929
X0066929
T06
X0012528Y-0012528
X-0012528Y0012528
T07
X0041758Y-0041758
X-0041758
Y0041758
X0041758
M30
