G04*
G04 #@! TF.GenerationSoftware,Altium Limited,Altium Designer,19.0.10 (269)*
G04*
G04 Layer_Color=8388736*
%FSLAX25Y25*%
%MOIN*%
G70*
G01*
G75*
%ADD11C,0.09855*%
%ADD12C,0.07493*%
%ADD13C,0.16548*%
%ADD14C,0.20485*%
%ADD15C,0.00400*%
D11*
X-25779Y25779D02*
D03*
X25779Y-25779D02*
D03*
X-4371Y-4371D02*
D03*
X-63584Y-14198D02*
D03*
X-12806Y-63305D02*
D03*
X-30511Y59464D02*
D03*
X25779Y25779D02*
D03*
X63584Y14198D02*
D03*
X30511Y-59464D02*
D03*
D12*
X12528Y-12528D02*
D03*
X-12528Y12528D02*
D03*
D13*
X41758Y-41758D02*
D03*
Y41758D02*
D03*
X-41758D02*
D03*
Y-41758D02*
D03*
D14*
X-66929Y66929D02*
D03*
X66929D02*
D03*
Y-66929D02*
D03*
X-66929D02*
D03*
D15*
X60039Y45039D02*
D03*
X67539Y30039D02*
D03*
X60039Y-14961D02*
D03*
X67539Y-29961D02*
D03*
X60039Y-44961D02*
D03*
X52539Y60039D02*
D03*
Y30039D02*
D03*
Y-59961D02*
D03*
X37539Y60039D02*
D03*
X30039Y45039D02*
D03*
Y-44961D02*
D03*
X37539Y-59961D02*
D03*
X15039Y-44961D02*
D03*
X7539Y-29961D02*
D03*
X39Y-44961D02*
D03*
X7539Y-59961D02*
D03*
X-7461Y-29961D02*
D03*
X-29961Y45039D02*
D03*
Y-44961D02*
D03*
X-22461Y-59961D02*
D03*
X-37461Y60039D02*
D03*
Y30039D02*
D03*
Y39D02*
D03*
Y-59961D02*
D03*
X-52461Y60039D02*
D03*
X-59961Y45039D02*
D03*
X-52461Y30039D02*
D03*
Y39D02*
D03*
Y-29961D02*
D03*
X-59961Y-44961D02*
D03*
X-52461Y-59961D02*
D03*
X-67461Y30039D02*
D03*
Y-29961D02*
D03*
X13112Y6573D02*
D03*
X8936D02*
D03*
Y10749D02*
D03*
X13112D02*
D03*
M02*
