G04*
G04 #@! TF.GenerationSoftware,Altium Limited,Altium Designer,19.0.10 (269)*
G04*
G04 Layer_Color=32896*
%FSLAX25Y25*%
%MOIN*%
G70*
G01*
G75*
%ADD10C,0.01000*%
%ADD18C,0.00800*%
%ADD61C,0.00984*%
%ADD62C,0.00600*%
%ADD63C,0.00787*%
%ADD64C,0.00700*%
G36*
X25354Y63318D02*
X25526Y63302D01*
X25681Y63274D01*
X25754Y63263D01*
X25815Y63246D01*
X25876Y63229D01*
X25926Y63218D01*
X25970Y63207D01*
X26009Y63191D01*
X26042Y63185D01*
X26064Y63174D01*
X26076Y63168D01*
X26081D01*
X26225Y63107D01*
X26353Y63035D01*
X26464Y62958D01*
X26558Y62885D01*
X26636Y62819D01*
X26692Y62763D01*
X26708Y62741D01*
X26725Y62724D01*
X26730Y62719D01*
X26736Y62713D01*
X26808Y62625D01*
X26864Y62530D01*
X26913Y62436D01*
X26952Y62347D01*
X26980Y62269D01*
X26997Y62208D01*
X27008Y62186D01*
Y62169D01*
X27013Y62158D01*
Y62153D01*
X27030Y62058D01*
X27047Y61947D01*
X27058Y61836D01*
X27063Y61725D01*
X27069Y61625D01*
Y60149D01*
X23228D01*
Y61531D01*
X23234Y61659D01*
X23239Y61775D01*
X23251Y61881D01*
X23262Y61970D01*
X23273Y62047D01*
X23278Y62103D01*
X23284Y62119D01*
X23289Y62136D01*
Y62147D01*
X23317Y62247D01*
X23350Y62336D01*
X23378Y62414D01*
X23412Y62480D01*
X23439Y62536D01*
X23461Y62574D01*
X23478Y62597D01*
X23484Y62608D01*
X23534Y62680D01*
X23595Y62741D01*
X23650Y62802D01*
X23706Y62852D01*
X23756Y62897D01*
X23795Y62930D01*
X23822Y62952D01*
X23833Y62958D01*
X23922Y63013D01*
X24016Y63068D01*
X24105Y63113D01*
X24194Y63146D01*
X24272Y63179D01*
X24333Y63202D01*
X24355Y63207D01*
X24372Y63213D01*
X24383Y63218D01*
X24388D01*
X24521Y63252D01*
X24655Y63279D01*
X24782Y63296D01*
X24904Y63313D01*
X25010Y63318D01*
X25054D01*
X25093Y63324D01*
X25121D01*
X25149D01*
X25160D01*
X25165D01*
X25354Y63318D01*
D02*
G37*
G36*
X27069Y58806D02*
X24050D01*
X27069Y56791D01*
Y56270D01*
X23228D01*
Y56758D01*
X26242D01*
X23228Y58767D01*
Y59294D01*
X27069D01*
Y58806D01*
D02*
G37*
G36*
X25188Y53894D02*
X24732D01*
Y55027D01*
X24011D01*
X23955Y54960D01*
X23905Y54882D01*
X23861Y54799D01*
X23822Y54721D01*
X23789Y54655D01*
X23761Y54594D01*
X23750Y54571D01*
X23744Y54560D01*
X23739Y54549D01*
Y54544D01*
X23700Y54427D01*
X23667Y54311D01*
X23645Y54205D01*
X23633Y54105D01*
X23622Y54022D01*
Y53989D01*
X23617Y53955D01*
Y53900D01*
X23622Y53761D01*
X23645Y53628D01*
X23672Y53506D01*
X23700Y53395D01*
X23733Y53306D01*
X23744Y53267D01*
X23756Y53239D01*
X23767Y53212D01*
X23778Y53195D01*
X23783Y53184D01*
Y53178D01*
X23855Y53062D01*
X23933Y52956D01*
X24016Y52868D01*
X24100Y52795D01*
X24177Y52734D01*
X24238Y52696D01*
X24261Y52679D01*
X24277Y52673D01*
X24288Y52662D01*
X24294D01*
X24433Y52607D01*
X24577Y52562D01*
X24721Y52535D01*
X24860Y52512D01*
X24921Y52507D01*
X24977Y52501D01*
X25032Y52496D01*
X25076D01*
X25110Y52490D01*
X25137D01*
X25154D01*
X25160D01*
X25315Y52496D01*
X25454Y52512D01*
X25587Y52535D01*
X25704Y52562D01*
X25754Y52574D01*
X25798Y52590D01*
X25837Y52601D01*
X25870Y52612D01*
X25898Y52623D01*
X25915Y52629D01*
X25926Y52635D01*
X25931D01*
X26009Y52673D01*
X26081Y52712D01*
X26148Y52751D01*
X26203Y52790D01*
X26248Y52823D01*
X26286Y52851D01*
X26309Y52873D01*
X26314Y52879D01*
X26375Y52940D01*
X26431Y53006D01*
X26475Y53079D01*
X26520Y53145D01*
X26547Y53201D01*
X26575Y53245D01*
X26586Y53278D01*
X26592Y53289D01*
X26630Y53389D01*
X26658Y53489D01*
X26675Y53595D01*
X26692Y53689D01*
X26697Y53772D01*
Y53806D01*
X26703Y53833D01*
Y53894D01*
X26697Y54000D01*
X26686Y54100D01*
X26669Y54189D01*
X26653Y54266D01*
X26630Y54333D01*
X26614Y54383D01*
X26603Y54410D01*
X26597Y54422D01*
X26558Y54505D01*
X26514Y54577D01*
X26469Y54644D01*
X26425Y54694D01*
X26386Y54732D01*
X26359Y54766D01*
X26336Y54782D01*
X26331Y54788D01*
X26264Y54838D01*
X26186Y54877D01*
X26114Y54915D01*
X26037Y54949D01*
X25970Y54971D01*
X25920Y54988D01*
X25898Y54993D01*
X25881Y54999D01*
X25876Y55004D01*
X25870D01*
X25992Y55465D01*
X26131Y55426D01*
X26253Y55376D01*
X26364Y55326D01*
X26453Y55282D01*
X26525Y55238D01*
X26575Y55204D01*
X26608Y55182D01*
X26619Y55171D01*
X26708Y55093D01*
X26780Y55010D01*
X26847Y54921D01*
X26902Y54838D01*
X26941Y54760D01*
X26975Y54699D01*
X26986Y54677D01*
X26991Y54660D01*
X26997Y54649D01*
Y54644D01*
X27041Y54516D01*
X27075Y54383D01*
X27102Y54261D01*
X27119Y54144D01*
X27130Y54039D01*
Y53994D01*
X27136Y53961D01*
Y53783D01*
X27125Y53684D01*
X27097Y53489D01*
X27080Y53400D01*
X27058Y53317D01*
X27041Y53239D01*
X27019Y53167D01*
X26997Y53101D01*
X26975Y53045D01*
X26952Y52995D01*
X26936Y52951D01*
X26919Y52918D01*
X26908Y52895D01*
X26902Y52879D01*
X26897Y52873D01*
X26847Y52795D01*
X26797Y52718D01*
X26680Y52585D01*
X26564Y52468D01*
X26442Y52374D01*
X26336Y52296D01*
X26292Y52268D01*
X26248Y52246D01*
X26214Y52224D01*
X26192Y52213D01*
X26175Y52207D01*
X26170Y52202D01*
X25987Y52124D01*
X25804Y52068D01*
X25626Y52024D01*
X25543Y52013D01*
X25465Y51996D01*
X25393Y51991D01*
X25332Y51980D01*
X25271Y51974D01*
X25221D01*
X25182Y51968D01*
X25154D01*
X25132D01*
X25126D01*
X24921Y51980D01*
X24727Y52007D01*
X24638Y52024D01*
X24555Y52041D01*
X24472Y52063D01*
X24399Y52085D01*
X24333Y52107D01*
X24277Y52129D01*
X24222Y52146D01*
X24183Y52163D01*
X24144Y52179D01*
X24122Y52191D01*
X24105Y52202D01*
X24100D01*
X23939Y52302D01*
X23800Y52412D01*
X23678Y52529D01*
X23578Y52640D01*
X23500Y52745D01*
X23473Y52784D01*
X23445Y52823D01*
X23428Y52856D01*
X23412Y52879D01*
X23406Y52895D01*
X23400Y52901D01*
X23356Y52990D01*
X23323Y53079D01*
X23262Y53256D01*
X23223Y53428D01*
X23189Y53589D01*
X23184Y53661D01*
X23173Y53728D01*
X23167Y53789D01*
Y53839D01*
X23162Y53878D01*
Y53933D01*
X23167Y54089D01*
X23184Y54238D01*
X23212Y54377D01*
X23239Y54499D01*
X23251Y54549D01*
X23262Y54599D01*
X23278Y54644D01*
X23289Y54682D01*
X23301Y54710D01*
X23306Y54732D01*
X23312Y54743D01*
Y54749D01*
X23373Y54899D01*
X23445Y55038D01*
X23523Y55171D01*
X23595Y55287D01*
X23628Y55337D01*
X23661Y55387D01*
X23689Y55426D01*
X23711Y55459D01*
X23733Y55487D01*
X23750Y55509D01*
X23756Y55520D01*
X23761Y55526D01*
X25188D01*
Y53894D01*
D02*
G37*
G36*
X-22835Y52849D02*
Y52316D01*
X-26675Y50818D01*
Y51334D01*
X-23884Y52377D01*
X-23767Y52421D01*
X-23656Y52460D01*
X-23551Y52494D01*
X-23456Y52521D01*
X-23373Y52549D01*
X-23312Y52566D01*
X-23290Y52571D01*
X-23273Y52577D01*
X-23262Y52583D01*
X-23257D01*
X-23479Y52649D01*
X-23584Y52682D01*
X-23678Y52716D01*
X-23762Y52743D01*
X-23795Y52754D01*
X-23828Y52760D01*
X-23850Y52771D01*
X-23867Y52777D01*
X-23878Y52782D01*
X-23884D01*
X-26675Y53781D01*
Y54336D01*
X-22835Y52849D01*
D02*
G37*
G36*
X-24583Y50496D02*
X-24389Y50473D01*
X-24217Y50446D01*
X-24133Y50424D01*
X-24061Y50407D01*
X-23995Y50390D01*
X-23934Y50368D01*
X-23878Y50351D01*
X-23834Y50340D01*
X-23800Y50324D01*
X-23773Y50318D01*
X-23756Y50307D01*
X-23750D01*
X-23584Y50224D01*
X-23434Y50129D01*
X-23306Y50029D01*
X-23257Y49979D01*
X-23207Y49935D01*
X-23162Y49891D01*
X-23123Y49846D01*
X-23090Y49808D01*
X-23068Y49774D01*
X-23046Y49752D01*
X-23029Y49730D01*
X-23023Y49719D01*
X-23018Y49713D01*
X-22973Y49635D01*
X-22934Y49558D01*
X-22873Y49391D01*
X-22829Y49225D01*
X-22801Y49064D01*
X-22790Y48986D01*
X-22779Y48919D01*
X-22774Y48858D01*
Y48809D01*
X-22768Y48764D01*
Y48703D01*
X-22774Y48592D01*
X-22785Y48487D01*
X-22796Y48387D01*
X-22818Y48292D01*
X-22846Y48204D01*
X-22873Y48120D01*
X-22901Y48043D01*
X-22934Y47970D01*
X-22962Y47909D01*
X-22990Y47848D01*
X-23018Y47804D01*
X-23046Y47760D01*
X-23068Y47732D01*
X-23079Y47704D01*
X-23090Y47693D01*
X-23096Y47687D01*
X-23162Y47610D01*
X-23229Y47543D01*
X-23306Y47482D01*
X-23384Y47421D01*
X-23539Y47321D01*
X-23695Y47243D01*
X-23767Y47210D01*
X-23834Y47182D01*
X-23895Y47160D01*
X-23945Y47144D01*
X-23989Y47127D01*
X-24022Y47116D01*
X-24045Y47110D01*
X-24050D01*
X-24178Y47621D01*
X-24089Y47643D01*
X-24006Y47671D01*
X-23928Y47699D01*
X-23856Y47726D01*
X-23789Y47760D01*
X-23734Y47793D01*
X-23678Y47832D01*
X-23628Y47865D01*
X-23584Y47893D01*
X-23551Y47926D01*
X-23517Y47954D01*
X-23490Y47976D01*
X-23473Y47998D01*
X-23456Y48015D01*
X-23451Y48020D01*
X-23445Y48026D01*
X-23401Y48081D01*
X-23367Y48142D01*
X-23306Y48265D01*
X-23262Y48381D01*
X-23234Y48498D01*
X-23212Y48598D01*
X-23207Y48636D01*
Y48675D01*
X-23201Y48709D01*
Y48747D01*
X-23207Y48875D01*
X-23229Y48997D01*
X-23257Y49108D01*
X-23290Y49208D01*
X-23323Y49286D01*
X-23340Y49319D01*
X-23351Y49347D01*
X-23362Y49369D01*
X-23373Y49386D01*
X-23379Y49397D01*
Y49402D01*
X-23456Y49508D01*
X-23539Y49597D01*
X-23634Y49674D01*
X-23723Y49735D01*
X-23800Y49785D01*
X-23867Y49819D01*
X-23895Y49830D01*
X-23911Y49841D01*
X-23923Y49846D01*
X-23928D01*
X-24072Y49891D01*
X-24217Y49924D01*
X-24361Y49952D01*
X-24494Y49968D01*
X-24555Y49974D01*
X-24611Y49979D01*
X-24661D01*
X-24699Y49985D01*
X-24733D01*
X-24760D01*
X-24777D01*
X-24783D01*
X-24927Y49979D01*
X-25060Y49968D01*
X-25182Y49946D01*
X-25293Y49924D01*
X-25388Y49907D01*
X-25427Y49896D01*
X-25460Y49885D01*
X-25488Y49880D01*
X-25504Y49874D01*
X-25515Y49869D01*
X-25521D01*
X-25648Y49813D01*
X-25765Y49752D01*
X-25859Y49685D01*
X-25943Y49613D01*
X-26009Y49552D01*
X-26054Y49502D01*
X-26081Y49463D01*
X-26092Y49458D01*
Y49452D01*
X-26165Y49336D01*
X-26220Y49208D01*
X-26259Y49086D01*
X-26281Y48969D01*
X-26298Y48864D01*
X-26303Y48820D01*
Y48781D01*
X-26309Y48753D01*
Y48709D01*
X-26303Y48570D01*
X-26281Y48442D01*
X-26248Y48337D01*
X-26215Y48242D01*
X-26176Y48170D01*
X-26148Y48115D01*
X-26126Y48081D01*
X-26115Y48070D01*
X-26032Y47982D01*
X-25937Y47898D01*
X-25837Y47832D01*
X-25737Y47776D01*
X-25648Y47732D01*
X-25604Y47715D01*
X-25571Y47704D01*
X-25543Y47693D01*
X-25521Y47682D01*
X-25510Y47676D01*
X-25504D01*
X-25621Y47177D01*
X-25721Y47210D01*
X-25809Y47243D01*
X-25893Y47288D01*
X-25976Y47327D01*
X-26048Y47371D01*
X-26115Y47421D01*
X-26181Y47465D01*
X-26237Y47510D01*
X-26281Y47554D01*
X-26326Y47593D01*
X-26364Y47632D01*
X-26392Y47660D01*
X-26420Y47687D01*
X-26437Y47710D01*
X-26442Y47721D01*
X-26448Y47726D01*
X-26498Y47804D01*
X-26548Y47882D01*
X-26586Y47959D01*
X-26620Y48043D01*
X-26670Y48209D01*
X-26703Y48359D01*
X-26720Y48431D01*
X-26725Y48492D01*
X-26731Y48553D01*
X-26736Y48603D01*
X-26742Y48642D01*
Y48698D01*
X-26731Y48881D01*
X-26703Y49058D01*
X-26670Y49214D01*
X-26647Y49286D01*
X-26625Y49352D01*
X-26603Y49413D01*
X-26581Y49469D01*
X-26564Y49513D01*
X-26548Y49558D01*
X-26531Y49586D01*
X-26520Y49608D01*
X-26514Y49624D01*
X-26509Y49630D01*
X-26414Y49780D01*
X-26303Y49907D01*
X-26192Y50018D01*
X-26081Y50113D01*
X-25982Y50185D01*
X-25937Y50213D01*
X-25898Y50235D01*
X-25870Y50257D01*
X-25848Y50268D01*
X-25832Y50274D01*
X-25826Y50279D01*
X-25654Y50357D01*
X-25476Y50412D01*
X-25299Y50451D01*
X-25138Y50479D01*
X-25066Y50490D01*
X-24994Y50496D01*
X-24938Y50501D01*
X-24883D01*
X-24844Y50507D01*
X-24811D01*
X-24788D01*
X-24783D01*
X-24583Y50496D01*
D02*
G37*
G36*
Y46622D02*
X-24389Y46600D01*
X-24217Y46572D01*
X-24133Y46550D01*
X-24061Y46533D01*
X-23995Y46516D01*
X-23934Y46494D01*
X-23878Y46477D01*
X-23834Y46466D01*
X-23800Y46450D01*
X-23773Y46444D01*
X-23756Y46433D01*
X-23750D01*
X-23584Y46350D01*
X-23434Y46255D01*
X-23306Y46156D01*
X-23257Y46106D01*
X-23207Y46061D01*
X-23162Y46017D01*
X-23123Y45972D01*
X-23090Y45934D01*
X-23068Y45900D01*
X-23046Y45878D01*
X-23029Y45856D01*
X-23023Y45845D01*
X-23018Y45839D01*
X-22973Y45761D01*
X-22934Y45684D01*
X-22873Y45517D01*
X-22829Y45351D01*
X-22801Y45190D01*
X-22790Y45112D01*
X-22779Y45046D01*
X-22774Y44984D01*
Y44935D01*
X-22768Y44890D01*
Y44829D01*
X-22774Y44718D01*
X-22785Y44613D01*
X-22796Y44513D01*
X-22818Y44418D01*
X-22846Y44330D01*
X-22873Y44246D01*
X-22901Y44169D01*
X-22934Y44096D01*
X-22962Y44036D01*
X-22990Y43974D01*
X-23018Y43930D01*
X-23046Y43886D01*
X-23068Y43858D01*
X-23079Y43830D01*
X-23090Y43819D01*
X-23096Y43813D01*
X-23162Y43736D01*
X-23229Y43669D01*
X-23306Y43608D01*
X-23384Y43547D01*
X-23539Y43447D01*
X-23695Y43369D01*
X-23767Y43336D01*
X-23834Y43308D01*
X-23895Y43286D01*
X-23945Y43270D01*
X-23989Y43253D01*
X-24022Y43242D01*
X-24045Y43236D01*
X-24050D01*
X-24178Y43747D01*
X-24089Y43769D01*
X-24006Y43797D01*
X-23928Y43825D01*
X-23856Y43852D01*
X-23789Y43886D01*
X-23734Y43919D01*
X-23678Y43958D01*
X-23628Y43991D01*
X-23584Y44019D01*
X-23551Y44052D01*
X-23517Y44080D01*
X-23490Y44102D01*
X-23473Y44124D01*
X-23456Y44141D01*
X-23451Y44146D01*
X-23445Y44152D01*
X-23401Y44208D01*
X-23367Y44269D01*
X-23306Y44391D01*
X-23262Y44507D01*
X-23234Y44624D01*
X-23212Y44724D01*
X-23207Y44763D01*
Y44801D01*
X-23201Y44835D01*
Y44873D01*
X-23207Y45001D01*
X-23229Y45123D01*
X-23257Y45234D01*
X-23290Y45334D01*
X-23323Y45412D01*
X-23340Y45445D01*
X-23351Y45473D01*
X-23362Y45495D01*
X-23373Y45512D01*
X-23379Y45523D01*
Y45528D01*
X-23456Y45634D01*
X-23539Y45723D01*
X-23634Y45800D01*
X-23723Y45861D01*
X-23800Y45911D01*
X-23867Y45945D01*
X-23895Y45956D01*
X-23911Y45967D01*
X-23923Y45972D01*
X-23928D01*
X-24072Y46017D01*
X-24217Y46050D01*
X-24361Y46078D01*
X-24494Y46095D01*
X-24555Y46100D01*
X-24611Y46106D01*
X-24661D01*
X-24699Y46111D01*
X-24733D01*
X-24760D01*
X-24777D01*
X-24783D01*
X-24927Y46106D01*
X-25060Y46095D01*
X-25182Y46072D01*
X-25293Y46050D01*
X-25388Y46033D01*
X-25427Y46022D01*
X-25460Y46011D01*
X-25488Y46006D01*
X-25504Y46000D01*
X-25515Y45995D01*
X-25521D01*
X-25648Y45939D01*
X-25765Y45878D01*
X-25859Y45812D01*
X-25943Y45739D01*
X-26009Y45678D01*
X-26054Y45628D01*
X-26081Y45590D01*
X-26092Y45584D01*
Y45578D01*
X-26165Y45462D01*
X-26220Y45334D01*
X-26259Y45212D01*
X-26281Y45096D01*
X-26298Y44990D01*
X-26303Y44946D01*
Y44907D01*
X-26309Y44879D01*
Y44835D01*
X-26303Y44696D01*
X-26281Y44568D01*
X-26248Y44463D01*
X-26215Y44368D01*
X-26176Y44296D01*
X-26148Y44241D01*
X-26126Y44208D01*
X-26115Y44196D01*
X-26032Y44108D01*
X-25937Y44024D01*
X-25837Y43958D01*
X-25737Y43902D01*
X-25648Y43858D01*
X-25604Y43841D01*
X-25571Y43830D01*
X-25543Y43819D01*
X-25521Y43808D01*
X-25510Y43802D01*
X-25504D01*
X-25621Y43303D01*
X-25721Y43336D01*
X-25809Y43369D01*
X-25893Y43414D01*
X-25976Y43453D01*
X-26048Y43497D01*
X-26115Y43547D01*
X-26181Y43591D01*
X-26237Y43636D01*
X-26281Y43680D01*
X-26326Y43719D01*
X-26364Y43758D01*
X-26392Y43786D01*
X-26420Y43813D01*
X-26437Y43836D01*
X-26442Y43847D01*
X-26448Y43852D01*
X-26498Y43930D01*
X-26548Y44008D01*
X-26586Y44085D01*
X-26620Y44169D01*
X-26670Y44335D01*
X-26703Y44485D01*
X-26720Y44557D01*
X-26725Y44618D01*
X-26731Y44679D01*
X-26736Y44729D01*
X-26742Y44768D01*
Y44824D01*
X-26731Y45007D01*
X-26703Y45184D01*
X-26670Y45340D01*
X-26647Y45412D01*
X-26625Y45478D01*
X-26603Y45540D01*
X-26581Y45595D01*
X-26564Y45639D01*
X-26548Y45684D01*
X-26531Y45712D01*
X-26520Y45734D01*
X-26514Y45750D01*
X-26509Y45756D01*
X-26414Y45906D01*
X-26303Y46033D01*
X-26192Y46145D01*
X-26081Y46239D01*
X-25982Y46311D01*
X-25937Y46339D01*
X-25898Y46361D01*
X-25870Y46383D01*
X-25848Y46394D01*
X-25832Y46400D01*
X-25826Y46405D01*
X-25654Y46483D01*
X-25476Y46538D01*
X-25299Y46577D01*
X-25138Y46605D01*
X-25066Y46616D01*
X-24994Y46622D01*
X-24938Y46627D01*
X-24883D01*
X-24844Y46633D01*
X-24811D01*
X-24788D01*
X-24783D01*
X-24583Y46622D01*
D02*
G37*
G36*
X65185Y-33026D02*
X65322Y-33033D01*
X65452Y-33047D01*
X65560Y-33069D01*
X65646Y-33084D01*
X65704Y-33098D01*
X65726Y-33105D01*
X65798Y-33134D01*
X65877Y-33156D01*
X66057Y-33220D01*
X66252Y-33300D01*
X66440Y-33386D01*
X66613Y-33459D01*
X66692Y-33495D01*
X66764Y-33523D01*
X66815Y-33545D01*
X66858Y-33560D01*
X66887Y-33574D01*
X66894Y-33581D01*
X71950Y-35882D01*
X71337Y-36495D01*
X68445Y-35161D01*
X68235Y-35067D01*
X68048Y-34966D01*
X67853Y-34872D01*
X67695Y-34786D01*
X67558Y-34706D01*
X67500Y-34677D01*
X67457Y-34649D01*
X67421Y-34627D01*
X67392Y-34613D01*
X67370Y-34605D01*
X67363Y-34598D01*
X67485Y-34807D01*
X67594Y-35002D01*
X67695Y-35190D01*
X67774Y-35355D01*
X67839Y-35493D01*
X67868Y-35550D01*
X67889Y-35601D01*
X67918Y-35644D01*
X67933Y-35673D01*
Y-35687D01*
X67940Y-35694D01*
X69281Y-38550D01*
X68632Y-39200D01*
X66382Y-34209D01*
X66288Y-34173D01*
X66223Y-34137D01*
X66180Y-34122D01*
X66173Y-34115D01*
X66007Y-34036D01*
X65863Y-33978D01*
X65747Y-33920D01*
X65661Y-33891D01*
X65603Y-33862D01*
X65560Y-33848D01*
X65531D01*
X65524Y-33841D01*
X65387Y-33819D01*
X65264Y-33826D01*
X65214Y-33834D01*
X65177Y-33841D01*
X65149D01*
X65141Y-33848D01*
X65069Y-33877D01*
X64997Y-33906D01*
X64867Y-33992D01*
X64824Y-34036D01*
X64781Y-34064D01*
X64745Y-34100D01*
X64636Y-34223D01*
X64543Y-34360D01*
X64514Y-34418D01*
X64485Y-34461D01*
X64463Y-34497D01*
X64456Y-34504D01*
X63951Y-33870D01*
X64002Y-33762D01*
X64060Y-33675D01*
X64110Y-33596D01*
X64153Y-33523D01*
X64204Y-33473D01*
X64233Y-33430D01*
X64262Y-33401D01*
X64377Y-33300D01*
X64485Y-33220D01*
X64593Y-33156D01*
X64694Y-33112D01*
X64788Y-33076D01*
X64853Y-33055D01*
X64896Y-33040D01*
X64911D01*
X65048Y-33019D01*
X65185Y-33026D01*
D02*
G37*
G36*
X64781Y-36791D02*
X65026Y-36834D01*
X65235Y-36899D01*
X65416Y-36964D01*
X65495Y-37000D01*
X65560Y-37021D01*
X65617Y-37050D01*
X65654Y-37072D01*
X65675Y-37079D01*
X65682Y-37086D01*
X65127Y-37800D01*
X64932Y-37721D01*
X64752Y-37671D01*
X64586Y-37635D01*
X64449Y-37613D01*
X64341Y-37606D01*
X64254D01*
X64189Y-37613D01*
X64175D01*
X64024Y-37649D01*
X63886Y-37699D01*
X63757Y-37772D01*
X63648Y-37837D01*
X63555Y-37901D01*
X63482Y-37959D01*
X63425Y-38017D01*
X63345Y-38111D01*
X63273Y-38197D01*
X63165Y-38377D01*
X63086Y-38558D01*
X63028Y-38731D01*
X62992Y-38868D01*
X62978Y-38983D01*
X62970Y-39063D01*
X62978Y-39084D01*
X62970Y-39092D01*
X62999Y-39322D01*
X63064Y-39546D01*
X63165Y-39762D01*
X63266Y-39950D01*
X63374Y-40101D01*
X63418Y-40173D01*
X63461Y-40231D01*
X63504Y-40274D01*
X63526Y-40310D01*
X63547Y-40332D01*
X63555Y-40339D01*
X66259Y-37635D01*
X66339Y-37699D01*
X66389Y-37750D01*
X66418Y-37779D01*
X66425Y-37786D01*
X66584Y-37959D01*
X66721Y-38125D01*
X66843Y-38291D01*
X66952Y-38457D01*
X67038Y-38616D01*
X67118Y-38767D01*
X67175Y-38911D01*
X67226Y-39048D01*
X67269Y-39178D01*
X67298Y-39293D01*
X67320Y-39387D01*
X67334Y-39474D01*
X67348Y-39546D01*
X67356Y-39596D01*
Y-39625D01*
Y-39640D01*
Y-39813D01*
X67341Y-39986D01*
X67305Y-40152D01*
X67262Y-40310D01*
X67211Y-40462D01*
X67154Y-40592D01*
X67089Y-40729D01*
X67024Y-40837D01*
X66952Y-40952D01*
X66887Y-41046D01*
X66829Y-41133D01*
X66779Y-41197D01*
X66735Y-41255D01*
X66663Y-41327D01*
X66519Y-41457D01*
X66375Y-41573D01*
X66230Y-41674D01*
X66079Y-41753D01*
X65935Y-41825D01*
X65790Y-41883D01*
X65654Y-41933D01*
X65524Y-41962D01*
X65401Y-41998D01*
X65286Y-42013D01*
X65185Y-42027D01*
X65105Y-42034D01*
X65033D01*
X64983Y-42041D01*
X64954D01*
X64939D01*
X64759Y-42020D01*
X64579Y-41984D01*
X64406Y-41940D01*
X64233Y-41883D01*
X64067Y-41803D01*
X63915Y-41724D01*
X63627Y-41551D01*
X63504Y-41472D01*
X63389Y-41385D01*
X63295Y-41306D01*
X63208Y-41234D01*
X63136Y-41176D01*
X63093Y-41133D01*
X63057Y-41097D01*
X63050Y-41089D01*
X62898Y-40924D01*
X62761Y-40758D01*
X62639Y-40592D01*
X62538Y-40433D01*
X62451Y-40274D01*
X62372Y-40123D01*
X62314Y-39979D01*
X62264Y-39842D01*
X62227Y-39719D01*
X62199Y-39604D01*
X62177Y-39510D01*
X62163Y-39423D01*
X62148Y-39351D01*
X62141Y-39301D01*
Y-39272D01*
Y-39257D01*
X62148Y-39077D01*
X62170Y-38911D01*
X62206Y-38745D01*
X62256Y-38579D01*
X62314Y-38435D01*
X62379Y-38284D01*
X62523Y-38024D01*
X62603Y-37916D01*
X62675Y-37815D01*
X62740Y-37721D01*
X62797Y-37649D01*
X62841Y-37591D01*
X62920Y-37512D01*
X63158Y-37303D01*
X63396Y-37137D01*
X63620Y-37000D01*
X63721Y-36957D01*
X63822Y-36913D01*
X63915Y-36877D01*
X64002Y-36848D01*
X64067Y-36827D01*
X64132Y-36805D01*
X64182Y-36798D01*
X64218Y-36791D01*
X64247D01*
X64254Y-36783D01*
X64528Y-36769D01*
X64781Y-36791D01*
D02*
G37*
G36*
X61788Y-44732D02*
X65906Y-44667D01*
X65004Y-45568D01*
X60057Y-45554D01*
X62538Y-48035D01*
X61874Y-48698D01*
X56883Y-43707D01*
X57547Y-43044D01*
X59278Y-44775D01*
X60879Y-44746D01*
X60136Y-40455D01*
X61009Y-39582D01*
X61788Y-44732D01*
D02*
G37*
G36*
X59905Y-47927D02*
X59270Y-48561D01*
X56256Y-47148D01*
X56061Y-47054D01*
X55881Y-46975D01*
X55722Y-46888D01*
X55592Y-46830D01*
X55484Y-46766D01*
X55405Y-46729D01*
X55361Y-46701D01*
X55340Y-46693D01*
X55433Y-46874D01*
X55534Y-47047D01*
X55614Y-47213D01*
X55686Y-47357D01*
X55751Y-47480D01*
X55801Y-47573D01*
X55816Y-47602D01*
X55830Y-47631D01*
Y-47646D01*
X55837Y-47653D01*
X57229Y-50603D01*
X56580Y-51252D01*
X54323Y-46268D01*
X54907Y-45684D01*
X59905Y-47927D01*
D02*
G37*
G36*
X52628Y-48122D02*
X52671Y-48237D01*
X52714Y-48338D01*
X52765Y-48417D01*
X52801Y-48497D01*
X52837Y-48547D01*
X52859Y-48583D01*
X52866Y-48590D01*
X52909Y-48648D01*
X52967Y-48720D01*
X53039Y-48792D01*
X53111Y-48879D01*
X53284Y-49066D01*
X53464Y-49247D01*
X53630Y-49427D01*
X53710Y-49506D01*
X53774Y-49571D01*
X53832Y-49629D01*
X53875Y-49672D01*
X53904Y-49701D01*
X53912Y-49708D01*
X54734Y-50530D01*
X54871Y-50668D01*
X54986Y-50797D01*
X55073Y-50898D01*
X55152Y-50978D01*
X55203Y-51043D01*
X55239Y-51093D01*
X55253Y-51122D01*
X55260Y-51129D01*
X55332Y-51244D01*
X55383Y-51353D01*
X55419Y-51446D01*
X55448Y-51547D01*
X55462Y-51620D01*
X55477Y-51677D01*
X55484Y-51713D01*
Y-51728D01*
Y-51843D01*
X55477Y-51966D01*
X55448Y-52081D01*
X55419Y-52197D01*
X55383Y-52290D01*
X55354Y-52363D01*
X55332Y-52413D01*
X55325Y-52435D01*
X55246Y-52586D01*
X55152Y-52737D01*
X55051Y-52882D01*
X54943Y-53019D01*
X54842Y-53134D01*
X54770Y-53221D01*
X54690Y-53300D01*
X54510Y-53466D01*
X54344Y-53603D01*
X54178Y-53726D01*
X54041Y-53819D01*
X53919Y-53899D01*
X53825Y-53949D01*
X53789Y-53971D01*
X53760Y-53985D01*
X53746D01*
X53738Y-53992D01*
X53565Y-54065D01*
X53392Y-54108D01*
X53241Y-54144D01*
X53104Y-54166D01*
X52988D01*
X52902D01*
X52844D01*
X52830D01*
X52671Y-54137D01*
X52512Y-54093D01*
X52368Y-54036D01*
X52238Y-53978D01*
X52116Y-53913D01*
X52029Y-53870D01*
X51993Y-53848D01*
X51971Y-53827D01*
X51957D01*
X51950Y-53819D01*
X52469Y-53141D01*
X52642Y-53228D01*
X52801Y-53300D01*
X52945Y-53343D01*
X53061Y-53372D01*
X53161Y-53387D01*
X53234D01*
X53284Y-53379D01*
X53298D01*
X53435Y-53343D01*
X53573Y-53278D01*
X53710Y-53199D01*
X53825Y-53113D01*
X53940Y-53026D01*
X54020Y-52961D01*
X54092Y-52889D01*
X54251Y-52716D01*
X54373Y-52550D01*
X54453Y-52399D01*
X54517Y-52262D01*
X54546Y-52146D01*
X54575Y-52060D01*
X54582Y-51995D01*
Y-51980D01*
X54575Y-51858D01*
X54539Y-51735D01*
X54488Y-51612D01*
X54424Y-51504D01*
X54359Y-51410D01*
X54294Y-51331D01*
X54251Y-51288D01*
X54243Y-51281D01*
X54236Y-51273D01*
X54222Y-51259D01*
X54193Y-51230D01*
X54142Y-51180D01*
X54092Y-51143D01*
X54077Y-51129D01*
X54070Y-51122D01*
X53976Y-51172D01*
X53875Y-51230D01*
X53666Y-51353D01*
X53443Y-51504D01*
X53234Y-51641D01*
X53133Y-51713D01*
X53046Y-51785D01*
X52960Y-51843D01*
X52895Y-51894D01*
X52837Y-51937D01*
X52801Y-51973D01*
X52765Y-51995D01*
X52758Y-52002D01*
X52613Y-52117D01*
X52483Y-52204D01*
X52375Y-52283D01*
X52289Y-52341D01*
X52224Y-52391D01*
X52166Y-52420D01*
X52130Y-52442D01*
X52123Y-52449D01*
X52000Y-52514D01*
X51892Y-52564D01*
X51777Y-52608D01*
X51683Y-52644D01*
X51596Y-52673D01*
X51531Y-52680D01*
X51488Y-52694D01*
X51474D01*
X51351Y-52716D01*
X51236D01*
X51120D01*
X51019Y-52701D01*
X50933Y-52687D01*
X50861Y-52673D01*
X50817Y-52658D01*
X50803D01*
X50687Y-52615D01*
X50572Y-52557D01*
X50471Y-52500D01*
X50377Y-52435D01*
X50305Y-52377D01*
X50248Y-52334D01*
X50219Y-52305D01*
X50204Y-52290D01*
X50125Y-52197D01*
X50060Y-52117D01*
X49945Y-51930D01*
X49872Y-51757D01*
X49822Y-51591D01*
X49793Y-51446D01*
X49779Y-51331D01*
Y-51259D01*
Y-51230D01*
X49815Y-51007D01*
X49887Y-50790D01*
X49995Y-50581D01*
X50103Y-50401D01*
X50212Y-50249D01*
X50262Y-50184D01*
X50313Y-50134D01*
X50349Y-50083D01*
X50406Y-50026D01*
X50543Y-49903D01*
X50687Y-49788D01*
X50817Y-49687D01*
X50940Y-49607D01*
X51041Y-49550D01*
X51127Y-49506D01*
X51178Y-49470D01*
X51200Y-49463D01*
X51373Y-49391D01*
X51553Y-49340D01*
X51733Y-49304D01*
X51907Y-49261D01*
X52058Y-49239D01*
X52173Y-49225D01*
X52253Y-49218D01*
X52274Y-49225D01*
X52281Y-49218D01*
X52202Y-49110D01*
X52130Y-49009D01*
X52065Y-48915D01*
X52022Y-48828D01*
X51986Y-48749D01*
X51964Y-48698D01*
X51942Y-48662D01*
Y-48648D01*
X52584Y-48006D01*
X52628Y-48122D01*
D02*
G37*
G36*
X53421Y-57152D02*
X52786Y-57786D01*
X48863Y-53863D01*
X50168Y-60404D01*
X49490Y-61082D01*
X44499Y-56091D01*
X45134Y-55457D01*
X49050Y-59373D01*
X47745Y-52846D01*
X48430Y-52161D01*
X53421Y-57152D01*
D02*
G37*
G36*
X43641Y-57974D02*
X43821Y-57995D01*
X44002Y-58017D01*
X44333Y-58089D01*
X44636Y-58190D01*
X44773Y-58241D01*
X44896Y-58291D01*
X45004Y-58342D01*
X45091Y-58385D01*
X45170Y-58421D01*
X45228Y-58450D01*
X45264Y-58471D01*
X45271Y-58479D01*
X44773Y-59308D01*
X44629Y-59222D01*
X44485Y-59149D01*
X44348Y-59084D01*
X44218Y-59027D01*
X44088Y-58983D01*
X43973Y-58955D01*
X43850Y-58933D01*
X43742Y-58911D01*
X43648Y-58890D01*
X43562D01*
X43482Y-58883D01*
X43417Y-58875D01*
X43367Y-58883D01*
X43324D01*
X43309D01*
X43295D01*
X43165Y-58897D01*
X43042Y-58933D01*
X42804Y-59012D01*
X42595Y-59106D01*
X42408Y-59222D01*
X42249Y-59323D01*
X42191Y-59366D01*
X42141Y-59416D01*
X42090Y-59452D01*
X42040Y-59503D01*
X41881Y-59676D01*
X41751Y-59864D01*
X41643Y-60044D01*
X41557Y-60217D01*
X41499Y-60361D01*
X41477Y-60426D01*
X41456Y-60476D01*
X41441Y-60520D01*
X41434Y-60556D01*
X41427Y-60577D01*
X41420Y-60585D01*
X41383Y-60823D01*
X41376Y-61046D01*
X41398Y-61270D01*
X41434Y-61465D01*
X41470Y-61630D01*
X41513Y-61760D01*
X41535Y-61811D01*
X41542Y-61847D01*
X41549Y-61869D01*
X41557Y-61876D01*
X41686Y-62121D01*
X41831Y-62352D01*
X41982Y-62575D01*
X42134Y-62770D01*
X42206Y-62857D01*
X42271Y-62936D01*
X42336Y-63001D01*
X42379Y-63059D01*
X42422Y-63102D01*
X42458Y-63138D01*
X42480Y-63160D01*
X42487Y-63167D01*
X42682Y-63347D01*
X42869Y-63506D01*
X43057Y-63636D01*
X43230Y-63751D01*
X43374Y-63852D01*
X43439Y-63888D01*
X43497Y-63917D01*
X43540Y-63946D01*
X43569Y-63960D01*
X43591Y-63967D01*
X43598Y-63975D01*
X43836Y-64068D01*
X44067Y-64140D01*
X44276Y-64176D01*
X44478Y-64191D01*
X44644Y-64198D01*
X44766Y-64191D01*
X44853Y-64176D01*
X44874Y-64184D01*
X44881Y-64176D01*
X45127Y-64119D01*
X45365Y-64025D01*
X45574Y-63917D01*
X45754Y-63794D01*
X45913Y-63679D01*
X45978Y-63628D01*
X46028Y-63578D01*
X46072Y-63549D01*
X46129Y-63491D01*
X46302Y-63304D01*
X46439Y-63109D01*
X46533Y-62929D01*
X46613Y-62763D01*
X46656Y-62619D01*
X46692Y-62510D01*
X46706Y-62438D01*
Y-62410D01*
X46714Y-62186D01*
X46699Y-61955D01*
X46656Y-61739D01*
X46598Y-61537D01*
X46540Y-61364D01*
X46504Y-61284D01*
X46475Y-61227D01*
X46454Y-61176D01*
X46439Y-61133D01*
X46432Y-61111D01*
X46425Y-61104D01*
X47226Y-60606D01*
X47312Y-60779D01*
X47384Y-60938D01*
X47435Y-61104D01*
X47492Y-61263D01*
X47528Y-61414D01*
X47550Y-61566D01*
X47579Y-61710D01*
X47593Y-61840D01*
Y-61955D01*
X47601Y-62063D01*
Y-62164D01*
Y-62236D01*
Y-62309D01*
X47593Y-62359D01*
X47586Y-62381D01*
Y-62395D01*
X47550Y-62561D01*
X47514Y-62727D01*
X47464Y-62878D01*
X47399Y-63030D01*
X47247Y-63311D01*
X47096Y-63549D01*
X47024Y-63664D01*
X46951Y-63751D01*
X46879Y-63837D01*
X46822Y-63910D01*
X46778Y-63967D01*
X46706Y-64039D01*
X46454Y-64263D01*
X46187Y-64458D01*
X45942Y-64617D01*
X45819Y-64681D01*
X45704Y-64739D01*
X45595Y-64790D01*
X45495Y-64833D01*
X45415Y-64869D01*
X45336Y-64905D01*
X45278Y-64919D01*
X45235Y-64934D01*
X45206Y-64948D01*
X45192D01*
X44874Y-65020D01*
X44564Y-65042D01*
X44276D01*
X44009Y-65020D01*
X43785Y-64984D01*
X43691Y-64963D01*
X43612Y-64941D01*
X43547Y-64934D01*
X43504Y-64919D01*
X43475Y-64905D01*
X43461D01*
X43136Y-64782D01*
X42833Y-64624D01*
X42552Y-64443D01*
X42307Y-64270D01*
X42199Y-64191D01*
X42097Y-64104D01*
X42018Y-64039D01*
X41946Y-63967D01*
X41888Y-63924D01*
X41845Y-63881D01*
X41816Y-63852D01*
X41809Y-63845D01*
X41564Y-63571D01*
X41340Y-63289D01*
X41153Y-63030D01*
X41073Y-62893D01*
X41001Y-62777D01*
X40936Y-62669D01*
X40886Y-62561D01*
X40835Y-62467D01*
X40792Y-62395D01*
X40770Y-62330D01*
X40742Y-62287D01*
X40734Y-62251D01*
X40727Y-62244D01*
X40619Y-61919D01*
X40547Y-61602D01*
X40511Y-61306D01*
Y-61176D01*
X40503Y-61054D01*
Y-60938D01*
X40511Y-60830D01*
X40518Y-60736D01*
X40532Y-60664D01*
Y-60606D01*
X40540Y-60556D01*
X40547Y-60534D01*
Y-60520D01*
X40590Y-60361D01*
X40641Y-60210D01*
X40778Y-59914D01*
X40936Y-59640D01*
X41109Y-59395D01*
X41196Y-59279D01*
X41268Y-59178D01*
X41340Y-59092D01*
X41405Y-59027D01*
X41456Y-58962D01*
X41535Y-58883D01*
X41686Y-58745D01*
X41838Y-58623D01*
X41982Y-58508D01*
X42134Y-58414D01*
X42285Y-58334D01*
X42429Y-58262D01*
X42566Y-58197D01*
X42703Y-58147D01*
X42819Y-58104D01*
X42934Y-58060D01*
X43028Y-58039D01*
X43122Y-58017D01*
X43187Y-58010D01*
X43237Y-57988D01*
X43266D01*
X43280D01*
X43468Y-57974D01*
X43641D01*
D02*
G37*
G36*
X39155Y-62619D02*
X36695Y-65078D01*
X36904Y-65114D01*
X36998Y-65121D01*
X37085Y-65136D01*
X37164Y-65143D01*
X37222D01*
X37265D01*
X37279D01*
X37352D01*
X37431Y-65136D01*
X37626Y-65129D01*
X37849Y-65121D01*
X38080Y-65107D01*
X38289Y-65085D01*
X38383Y-65078D01*
X38470D01*
X38535Y-65071D01*
X38585Y-65064D01*
X38614D01*
X38628D01*
X38845Y-65049D01*
X39054Y-65028D01*
X39248Y-65020D01*
X39422Y-65006D01*
X39588Y-64999D01*
X39732D01*
X39869Y-64991D01*
X39984D01*
X40100D01*
X40186D01*
X40258D01*
X40330D01*
X40410Y-64999D01*
X40439D01*
X40662Y-65020D01*
X40857Y-65042D01*
X41037Y-65078D01*
X41181Y-65107D01*
X41304Y-65143D01*
X41391Y-65172D01*
X41441Y-65193D01*
X41463Y-65201D01*
X41614Y-65266D01*
X41751Y-65345D01*
X41881Y-65417D01*
X41982Y-65489D01*
X42069Y-65561D01*
X42134Y-65612D01*
X42170Y-65648D01*
X42184Y-65662D01*
X42285Y-65778D01*
X42372Y-65893D01*
X42458Y-66009D01*
X42516Y-66124D01*
X42617Y-66369D01*
X42682Y-66578D01*
X42703Y-66686D01*
X42718Y-66773D01*
X42732Y-66860D01*
Y-66932D01*
Y-66989D01*
X42747Y-67033D01*
X42739Y-67054D01*
Y-67069D01*
X42732Y-67220D01*
X42711Y-67372D01*
X42667Y-67516D01*
X42617Y-67653D01*
X42501Y-67913D01*
X42364Y-68151D01*
X42299Y-68244D01*
X42235Y-68338D01*
X42170Y-68418D01*
X42119Y-68482D01*
X42076Y-68540D01*
X42004Y-68612D01*
X41867Y-68735D01*
X41737Y-68850D01*
X41600Y-68944D01*
X41470Y-69030D01*
X41340Y-69103D01*
X41217Y-69168D01*
X41095Y-69218D01*
X40979Y-69261D01*
X40871Y-69297D01*
X40778Y-69319D01*
X40698Y-69341D01*
X40626Y-69355D01*
X40568Y-69370D01*
X40525D01*
X40503Y-69377D01*
X40489D01*
X40345D01*
X40201Y-69362D01*
X40049Y-69341D01*
X39912Y-69305D01*
X39652Y-69218D01*
X39422Y-69103D01*
X39321Y-69045D01*
X39220Y-68987D01*
X39140Y-68937D01*
X39068Y-68893D01*
X39011Y-68850D01*
X38974Y-68814D01*
X38946Y-68800D01*
X38938Y-68792D01*
X39501Y-68100D01*
X39681Y-68252D01*
X39854Y-68367D01*
X40027Y-68454D01*
X40179Y-68504D01*
X40309Y-68547D01*
X40410Y-68562D01*
X40475Y-68569D01*
X40503D01*
X40698Y-68547D01*
X40879Y-68497D01*
X41052Y-68425D01*
X41189Y-68345D01*
X41311Y-68266D01*
X41405Y-68187D01*
X41441Y-68165D01*
X41484Y-68122D01*
X41629Y-67963D01*
X41737Y-67797D01*
X41809Y-67638D01*
X41867Y-67494D01*
X41895Y-67364D01*
X41910Y-67278D01*
X41917Y-67213D01*
Y-67184D01*
X41903Y-66997D01*
X41867Y-66831D01*
X41816Y-66679D01*
X41744Y-66549D01*
X41686Y-66448D01*
X41621Y-66369D01*
X41585Y-66319D01*
X41578Y-66311D01*
X41571Y-66304D01*
X41427Y-66189D01*
X41261Y-66081D01*
X41088Y-66009D01*
X40922Y-65944D01*
X40770Y-65908D01*
X40641Y-65879D01*
X40597Y-65864D01*
X40561Y-65857D01*
X40540Y-65864D01*
X40532Y-65857D01*
X40395Y-65835D01*
X40244Y-65828D01*
X40078Y-65821D01*
X39905D01*
X39551Y-65828D01*
X39198Y-65835D01*
X39025Y-65850D01*
X38873Y-65857D01*
X38729Y-65872D01*
X38607Y-65879D01*
X38513Y-65886D01*
X38434Y-65893D01*
X38383Y-65900D01*
X38369D01*
X38037Y-65929D01*
X37727Y-65951D01*
X37460Y-65958D01*
X37244D01*
X37056D01*
X36926D01*
X36847Y-65951D01*
X36825Y-65958D01*
X36818Y-65951D01*
X36594Y-65929D01*
X36400Y-65893D01*
X36212Y-65850D01*
X36053Y-65807D01*
X35924Y-65763D01*
X35830Y-65727D01*
X35772Y-65698D01*
X35758D01*
X35750Y-65691D01*
X35642Y-65641D01*
X35556Y-65583D01*
X35469Y-65525D01*
X35397Y-65468D01*
X35332Y-65417D01*
X35289Y-65374D01*
X35260Y-65345D01*
X35253Y-65338D01*
X38563Y-62027D01*
X39155Y-62619D01*
D02*
G37*
G36*
X39414Y-71158D02*
X38751Y-71822D01*
X33760Y-66831D01*
X34423Y-66167D01*
X39414Y-71158D01*
D02*
G37*
G36*
X44361Y-22835D02*
X43127Y-22935D01*
X42711Y-24490D01*
X43720Y-25225D01*
X43571Y-25783D01*
X40267Y-23272D01*
X40411Y-22736D01*
X44500Y-22315D01*
X44361Y-22835D01*
D02*
G37*
G36*
X40688Y-25304D02*
X40711Y-25304D01*
X40729Y-25303D01*
X40734Y-25305D01*
X40692Y-25782D01*
X40569Y-25772D01*
X40458Y-25776D01*
X40362Y-25791D01*
X40283Y-25810D01*
X40219Y-25833D01*
X40173Y-25855D01*
X40140Y-25869D01*
X40133Y-25873D01*
X40061Y-25929D01*
X39998Y-25992D01*
X39953Y-26055D01*
X39913Y-26119D01*
X39885Y-26180D01*
X39861Y-26226D01*
X39849Y-26268D01*
X39829Y-26366D01*
X39827Y-26458D01*
X39834Y-26540D01*
X39844Y-26612D01*
X39863Y-26669D01*
X39880Y-26713D01*
X39894Y-26746D01*
X39898Y-26752D01*
X39946Y-26829D01*
X40005Y-26890D01*
X40067Y-26936D01*
X40126Y-26974D01*
X40182Y-27001D01*
X40222Y-27023D01*
X40254Y-27032D01*
X40259Y-27033D01*
X40265Y-27035D01*
X40324Y-27051D01*
X40380Y-27054D01*
X40478Y-27052D01*
X40569Y-27036D01*
X40650Y-27011D01*
X40710Y-26982D01*
X40757Y-26954D01*
X40786Y-26933D01*
X40793Y-26929D01*
X40794Y-26924D01*
X40867Y-26846D01*
X40927Y-26770D01*
X40979Y-26686D01*
X41016Y-26610D01*
X41046Y-26543D01*
X41072Y-26487D01*
X41091Y-26417D01*
X41091Y-26394D01*
X41098Y-26368D01*
X41515Y-26422D01*
X41480Y-26487D01*
X41452Y-26548D01*
X41427Y-26599D01*
X41409Y-26646D01*
X41393Y-26682D01*
X41381Y-26730D01*
X41361Y-26846D01*
X41355Y-26953D01*
X41363Y-27053D01*
X41380Y-27138D01*
X41402Y-27207D01*
X41423Y-27259D01*
X41437Y-27291D01*
X41445Y-27305D01*
X41507Y-27396D01*
X41578Y-27473D01*
X41654Y-27533D01*
X41734Y-27578D01*
X41799Y-27613D01*
X41857Y-27634D01*
X41877Y-27645D01*
X41893Y-27649D01*
X41903Y-27652D01*
X41909Y-27653D01*
X42030Y-27674D01*
X42144Y-27676D01*
X42244Y-27668D01*
X42336Y-27647D01*
X42412Y-27621D01*
X42468Y-27602D01*
X42508Y-27584D01*
X42521Y-27576D01*
X42619Y-27510D01*
X42697Y-27434D01*
X42759Y-27353D01*
X42809Y-27274D01*
X42845Y-27203D01*
X42867Y-27146D01*
X42878Y-27126D01*
X42886Y-27094D01*
X42907Y-26996D01*
X42910Y-26899D01*
X42904Y-26811D01*
X42889Y-26738D01*
X42877Y-26677D01*
X42862Y-26627D01*
X42846Y-26600D01*
X42844Y-26588D01*
X42786Y-26504D01*
X42714Y-26427D01*
X42636Y-26354D01*
X42550Y-26291D01*
X42476Y-26243D01*
X42442Y-26222D01*
X42411Y-26208D01*
X42386Y-26195D01*
X42366Y-26184D01*
X42356Y-26176D01*
X42351Y-26175D01*
X42532Y-25735D01*
X42615Y-25768D01*
X42691Y-25806D01*
X42828Y-25894D01*
X42941Y-25988D01*
X42986Y-26034D01*
X43031Y-26081D01*
X43071Y-26126D01*
X43100Y-26168D01*
X43130Y-26205D01*
X43150Y-26239D01*
X43167Y-26261D01*
X43179Y-26281D01*
X43186Y-26295D01*
X43190Y-26302D01*
X43221Y-26379D01*
X43252Y-26456D01*
X43273Y-26531D01*
X43286Y-26609D01*
X43304Y-26757D01*
X43301Y-26895D01*
X43296Y-26956D01*
X43293Y-27013D01*
X43285Y-27063D01*
X43279Y-27107D01*
X43276Y-27141D01*
X43263Y-27189D01*
X43230Y-27289D01*
X43195Y-27378D01*
X43155Y-27464D01*
X43110Y-27544D01*
X43062Y-27617D01*
X43016Y-27680D01*
X42965Y-27741D01*
X42917Y-27792D01*
X42875Y-27843D01*
X42830Y-27883D01*
X42792Y-27919D01*
X42756Y-27944D01*
X42728Y-27965D01*
X42706Y-27982D01*
X42692Y-27990D01*
X42685Y-27994D01*
X42604Y-28041D01*
X42520Y-28076D01*
X42437Y-28105D01*
X42356Y-28129D01*
X42283Y-28144D01*
X42205Y-28158D01*
X42064Y-28166D01*
X42003Y-28161D01*
X41946Y-28157D01*
X41895Y-28155D01*
X41851Y-28149D01*
X41817Y-28146D01*
X41790Y-28139D01*
X41774Y-28134D01*
X41769Y-28133D01*
X41642Y-28093D01*
X41529Y-28040D01*
X41436Y-27981D01*
X41359Y-27926D01*
X41298Y-27875D01*
X41253Y-27828D01*
X41227Y-27798D01*
X41217Y-27790D01*
X41157Y-27693D01*
X41109Y-27594D01*
X41078Y-27494D01*
X41058Y-27397D01*
X41046Y-27313D01*
X41041Y-27248D01*
X41041Y-27226D01*
X41040Y-27208D01*
X41037Y-27196D01*
X41039Y-27190D01*
X40966Y-27269D01*
X40898Y-27331D01*
X40827Y-27381D01*
X40764Y-27421D01*
X40710Y-27453D01*
X40664Y-27475D01*
X40638Y-27485D01*
X40626Y-27488D01*
X40539Y-27510D01*
X40456Y-27523D01*
X40374Y-27529D01*
X40299Y-27527D01*
X40238Y-27522D01*
X40193Y-27515D01*
X40161Y-27507D01*
X40150Y-27504D01*
X40061Y-27474D01*
X39974Y-27434D01*
X39899Y-27391D01*
X39837Y-27345D01*
X39785Y-27303D01*
X39742Y-27268D01*
X39720Y-27245D01*
X39711Y-27237D01*
X39645Y-27162D01*
X39592Y-27079D01*
X39550Y-26998D01*
X39514Y-26920D01*
X39491Y-26856D01*
X39472Y-26799D01*
X39464Y-26763D01*
X39460Y-26756D01*
X39462Y-26751D01*
X39445Y-26643D01*
X39438Y-26537D01*
X39437Y-26434D01*
X39444Y-26344D01*
X39452Y-26271D01*
X39463Y-26211D01*
X39499Y-26077D01*
X39529Y-26004D01*
X39595Y-25867D01*
X39671Y-25755D01*
X39743Y-25659D01*
X39782Y-25618D01*
X39814Y-25587D01*
X39845Y-25555D01*
X39874Y-25534D01*
X39896Y-25517D01*
X39911Y-25503D01*
X39919Y-25494D01*
X39926Y-25490D01*
X40055Y-25416D01*
X40189Y-25365D01*
X40324Y-25333D01*
X40457Y-25311D01*
X40567Y-25306D01*
X40614Y-25301D01*
X40655Y-25300D01*
X40688Y-25304D01*
D02*
G37*
G36*
X43535Y-15975D02*
X43580Y-15976D01*
X43619Y-15980D01*
X43646Y-15988D01*
X43664Y-15987D01*
X43669Y-15988D01*
X43592Y-16467D01*
X43466Y-16445D01*
X43353Y-16438D01*
X43248Y-16444D01*
X43163Y-16461D01*
X43090Y-16476D01*
X43038Y-16497D01*
X43006Y-16511D01*
X42992Y-16519D01*
X42906Y-16582D01*
X42835Y-16655D01*
X42773Y-16736D01*
X42730Y-16811D01*
X42694Y-16882D01*
X42671Y-16944D01*
X42660Y-16964D01*
X42652Y-16997D01*
X42627Y-17111D01*
X42621Y-17218D01*
X42630Y-17313D01*
X42642Y-17396D01*
X42664Y-17465D01*
X42681Y-17510D01*
X42695Y-17543D01*
X42703Y-17556D01*
X42761Y-17641D01*
X42823Y-17709D01*
X42888Y-17767D01*
X42957Y-17808D01*
X43012Y-17840D01*
X43064Y-17860D01*
X43095Y-17874D01*
X43100Y-17875D01*
X43105Y-17877D01*
X43205Y-17892D01*
X43312Y-17898D01*
X43414Y-17885D01*
X43509Y-17870D01*
X43591Y-17846D01*
X43660Y-17824D01*
X43684Y-17819D01*
X43703Y-17813D01*
X43711Y-17803D01*
X43716Y-17805D01*
X43787Y-17778D01*
X43860Y-17740D01*
X43940Y-17698D01*
X44022Y-17651D01*
X44187Y-17552D01*
X44351Y-17452D01*
X44429Y-17398D01*
X44498Y-17354D01*
X44562Y-17308D01*
X44618Y-17271D01*
X44660Y-17242D01*
X44696Y-17217D01*
X44717Y-17200D01*
X44724Y-17196D01*
X44873Y-17092D01*
X45013Y-16997D01*
X45137Y-16921D01*
X45239Y-16862D01*
X45327Y-16812D01*
X45388Y-16776D01*
X45428Y-16758D01*
X45436Y-16749D01*
X45441Y-16750D01*
X45553Y-16700D01*
X45654Y-16664D01*
X45754Y-16633D01*
X45841Y-16610D01*
X45914Y-16595D01*
X45968Y-16587D01*
X46003Y-16585D01*
X46010Y-16581D01*
X46015Y-16582D01*
X46080Y-16576D01*
X46136Y-16580D01*
X46193Y-16584D01*
X46242Y-16591D01*
X46287Y-16597D01*
X46319Y-16606D01*
X46340Y-16612D01*
X46346Y-16613D01*
X45686Y-19074D01*
X45247Y-18956D01*
X45737Y-17128D01*
X45628Y-17168D01*
X45582Y-17190D01*
X45537Y-17207D01*
X45498Y-17225D01*
X45471Y-17241D01*
X45450Y-17253D01*
X45443Y-17256D01*
X45410Y-17276D01*
X45374Y-17301D01*
X45284Y-17357D01*
X45181Y-17422D01*
X45076Y-17491D01*
X44983Y-17558D01*
X44941Y-17587D01*
X44900Y-17611D01*
X44872Y-17632D01*
X44850Y-17649D01*
X44836Y-17657D01*
X44830Y-17661D01*
X44732Y-17726D01*
X44639Y-17794D01*
X44549Y-17850D01*
X44471Y-17904D01*
X44395Y-17952D01*
X44327Y-17991D01*
X44265Y-18032D01*
X44210Y-18064D01*
X44156Y-18095D01*
X44115Y-18119D01*
X44081Y-18138D01*
X44047Y-18158D01*
X44008Y-18176D01*
X43994Y-18184D01*
X43883Y-18235D01*
X43785Y-18277D01*
X43690Y-18309D01*
X43615Y-18335D01*
X43547Y-18351D01*
X43499Y-18361D01*
X43469Y-18365D01*
X43457Y-18367D01*
X43368Y-18378D01*
X43281Y-18378D01*
X43201Y-18379D01*
X43133Y-18373D01*
X43073Y-18362D01*
X43029Y-18356D01*
X43002Y-18349D01*
X42991Y-18346D01*
X42912Y-18319D01*
X42840Y-18288D01*
X42768Y-18257D01*
X42709Y-18219D01*
X42595Y-18131D01*
X42507Y-18050D01*
X42468Y-18005D01*
X42437Y-17968D01*
X42407Y-17931D01*
X42388Y-17897D01*
X42372Y-17870D01*
X42353Y-17853D01*
X42351Y-17841D01*
X42347Y-17834D01*
X42309Y-17761D01*
X42278Y-17684D01*
X42259Y-17604D01*
X42246Y-17526D01*
X42229Y-17372D01*
X42229Y-17222D01*
X42234Y-17161D01*
X42239Y-17099D01*
X42248Y-17044D01*
X42254Y-16999D01*
X42259Y-16961D01*
X42274Y-16907D01*
X42305Y-16812D01*
X42335Y-16722D01*
X42374Y-16641D01*
X42411Y-16565D01*
X42453Y-16495D01*
X42493Y-16431D01*
X42537Y-16374D01*
X42580Y-16322D01*
X42621Y-16276D01*
X42659Y-16240D01*
X42691Y-16208D01*
X42721Y-16182D01*
X42744Y-16160D01*
X42764Y-16148D01*
X42772Y-16138D01*
X42779Y-16135D01*
X42847Y-16095D01*
X42919Y-16063D01*
X42996Y-16032D01*
X43071Y-16012D01*
X43217Y-15982D01*
X43357Y-15973D01*
X43420Y-15973D01*
X43483Y-15973D01*
X43535Y-15975D01*
D02*
G37*
G36*
X47174Y-13520D02*
X45941Y-13620D01*
X45524Y-15175D01*
X46534Y-15911D01*
X46384Y-16468D01*
X43081Y-13957D01*
X43225Y-13421D01*
X47314Y-13000D01*
X47174Y-13520D01*
D02*
G37*
G36*
X49492Y-3020D02*
X48258Y-3120D01*
X47842Y-4675D01*
X48851Y-5411D01*
X48702Y-5968D01*
X45398Y-3457D01*
X45542Y-2921D01*
X49631Y-2500D01*
X49492Y-3020D01*
D02*
G37*
G36*
X46199Y-5895D02*
X46145Y-5967D01*
X46086Y-6038D01*
X46027Y-6108D01*
X45969Y-6173D01*
X45920Y-6229D01*
X45879Y-6275D01*
X45849Y-6301D01*
X45842Y-6305D01*
X45840Y-6311D01*
X45755Y-6391D01*
X45674Y-6461D01*
X45600Y-6522D01*
X45536Y-6568D01*
X45484Y-6612D01*
X45443Y-6635D01*
X45415Y-6656D01*
X45408Y-6660D01*
X48308Y-7437D01*
X48186Y-7893D01*
X44460Y-6895D01*
X44539Y-6600D01*
X44644Y-6571D01*
X44746Y-6535D01*
X44851Y-6488D01*
X44943Y-6444D01*
X45024Y-6397D01*
X45091Y-6363D01*
X45113Y-6346D01*
X45133Y-6334D01*
X45140Y-6330D01*
X45147Y-6326D01*
X45268Y-6238D01*
X45384Y-6148D01*
X45488Y-6061D01*
X45575Y-5970D01*
X45654Y-5893D01*
X45685Y-5861D01*
X45710Y-5833D01*
X45733Y-5811D01*
X45744Y-5791D01*
X45758Y-5783D01*
X45759Y-5778D01*
X46199Y-5895D01*
D02*
G37*
G36*
X51703Y5980D02*
X50470Y5880D01*
X50053Y4325D01*
X51063Y3589D01*
X50913Y3032D01*
X47610Y5543D01*
X47754Y6079D01*
X51843Y6500D01*
X51703Y5980D01*
D02*
G37*
G36*
X47932Y3463D02*
X48018Y3463D01*
X48104Y3462D01*
X48290Y3447D01*
X48474Y3427D01*
X48644Y3398D01*
X48726Y3382D01*
X48797Y3369D01*
X48862Y3351D01*
X48922Y3341D01*
X48965Y3330D01*
X49002Y3319D01*
X49024Y3314D01*
X49029Y3312D01*
X49215Y3257D01*
X49389Y3198D01*
X49546Y3139D01*
X49689Y3072D01*
X49821Y3008D01*
X49936Y2943D01*
X50040Y2881D01*
X50128Y2823D01*
X50205Y2767D01*
X50270Y2710D01*
X50327Y2666D01*
X50368Y2626D01*
X50404Y2588D01*
X50426Y2565D01*
X50439Y2549D01*
X50443Y2543D01*
X50492Y2466D01*
X50534Y2386D01*
X50568Y2302D01*
X50593Y2221D01*
X50612Y2141D01*
X50625Y2063D01*
X50628Y1988D01*
X50632Y1918D01*
X50631Y1849D01*
X50626Y1787D01*
X50622Y1730D01*
X50616Y1686D01*
X50611Y1647D01*
X50597Y1594D01*
X50547Y1452D01*
X50490Y1323D01*
X50422Y1221D01*
X50359Y1135D01*
X50300Y1064D01*
X50271Y1043D01*
X50248Y1021D01*
X50232Y1002D01*
X50217Y989D01*
X50204Y986D01*
X50203Y981D01*
X50086Y909D01*
X49968Y854D01*
X49842Y813D01*
X49731Y786D01*
X49629Y767D01*
X49585Y756D01*
X49545Y755D01*
X49515Y752D01*
X49491Y747D01*
X49479Y744D01*
X49473Y746D01*
X49386Y740D01*
X49300Y740D01*
X49119Y754D01*
X48935Y775D01*
X48759Y805D01*
X48683Y819D01*
X48612Y833D01*
X48548Y850D01*
X48487Y860D01*
X48444Y872D01*
X48407Y882D01*
X48385Y888D01*
X48380Y889D01*
X48278Y916D01*
X48183Y948D01*
X48097Y971D01*
X48013Y999D01*
X47941Y1030D01*
X47867Y1055D01*
X47804Y1078D01*
X47748Y1104D01*
X47696Y1124D01*
X47651Y1148D01*
X47614Y1163D01*
X47584Y1177D01*
X47558Y1190D01*
X47544Y1199D01*
X47534Y1208D01*
X47529Y1209D01*
X47420Y1273D01*
X47323Y1339D01*
X47243Y1406D01*
X47171Y1460D01*
X47111Y1516D01*
X47069Y1551D01*
X47048Y1579D01*
X47039Y1588D01*
X46974Y1668D01*
X46920Y1746D01*
X46878Y1826D01*
X46841Y1899D01*
X46817Y1963D01*
X46802Y2013D01*
X46793Y2044D01*
X46789Y2051D01*
X46791Y2056D01*
X46771Y2153D01*
X46769Y2252D01*
X46770Y2343D01*
X46775Y2428D01*
X46784Y2501D01*
X46794Y2561D01*
X46807Y2609D01*
X46856Y2751D01*
X46914Y2879D01*
X46981Y2982D01*
X47045Y3068D01*
X47109Y3137D01*
X47134Y3165D01*
X47163Y3186D01*
X47179Y3205D01*
X47194Y3218D01*
X47206Y3220D01*
X47208Y3226D01*
X47319Y3299D01*
X47443Y3352D01*
X47563Y3395D01*
X47674Y3423D01*
X47777Y3441D01*
X47820Y3452D01*
X47860Y3453D01*
X47890Y3457D01*
X47914Y3462D01*
X47927Y3464D01*
X47932Y3463D01*
D02*
G37*
%LPC*%
G36*
X25232Y62802D02*
X25204D01*
X25182D01*
X25176D01*
X25021Y62797D01*
X24877Y62786D01*
X24749Y62769D01*
X24638Y62752D01*
X24594Y62741D01*
X24555Y62730D01*
X24516Y62719D01*
X24488Y62713D01*
X24466Y62708D01*
X24449Y62702D01*
X24438Y62697D01*
X24433D01*
X24327Y62658D01*
X24233Y62613D01*
X24150Y62564D01*
X24078Y62519D01*
X24022Y62480D01*
X23983Y62447D01*
X23961Y62425D01*
X23950Y62419D01*
X23905Y62364D01*
X23867Y62308D01*
X23833Y62253D01*
X23800Y62197D01*
X23778Y62147D01*
X23761Y62108D01*
X23756Y62081D01*
X23750Y62069D01*
X23728Y61986D01*
X23711Y61886D01*
X23700Y61787D01*
X23695Y61692D01*
X23689Y61609D01*
X23683Y61570D01*
Y60660D01*
X26614D01*
Y61548D01*
X26608Y61620D01*
Y61692D01*
X26603Y61759D01*
X26586Y61870D01*
X26575Y61958D01*
X26558Y62031D01*
X26542Y62081D01*
X26536Y62108D01*
X26531Y62119D01*
X26481Y62219D01*
X26420Y62314D01*
X26347Y62397D01*
X26275Y62469D01*
X26209Y62525D01*
X26153Y62569D01*
X26131Y62580D01*
X26114Y62591D01*
X26103Y62602D01*
X26098D01*
X26037Y62636D01*
X25964Y62669D01*
X25820Y62719D01*
X25665Y62752D01*
X25515Y62780D01*
X25448Y62786D01*
X25382Y62791D01*
X25326Y62797D01*
X25276D01*
X25232Y62802D01*
D02*
G37*
G36*
X66122Y-38781D02*
X64096Y-40808D01*
X64283Y-40952D01*
X64478Y-41061D01*
X64658Y-41140D01*
X64817Y-41183D01*
X64954Y-41219D01*
X65069Y-41234D01*
X65134Y-41241D01*
X65163D01*
X65372Y-41219D01*
X65560Y-41176D01*
X65733Y-41104D01*
X65884Y-41024D01*
X66000Y-40952D01*
X66086Y-40880D01*
X66122Y-40859D01*
X66166Y-40815D01*
X66245Y-40721D01*
X66317Y-40635D01*
X66425Y-40440D01*
X66497Y-40253D01*
X66541Y-40080D01*
X66562Y-39928D01*
X66569Y-39805D01*
X66562Y-39726D01*
X66569Y-39704D01*
X66562Y-39697D01*
X66533Y-39539D01*
X66483Y-39373D01*
X66411Y-39228D01*
X66331Y-39077D01*
X66259Y-38962D01*
X66187Y-38861D01*
X66158Y-38832D01*
X66144Y-38803D01*
X66129Y-38789D01*
X66122Y-38781D01*
D02*
G37*
G36*
X52209Y-49838D02*
X52087Y-49845D01*
X51979Y-49852D01*
X51892Y-49867D01*
X51841Y-49874D01*
X51820Y-49881D01*
X51661Y-49939D01*
X51517Y-50011D01*
X51387Y-50083D01*
X51272Y-50170D01*
X51178Y-50235D01*
X51099Y-50300D01*
X51041Y-50357D01*
X50918Y-50494D01*
X50825Y-50617D01*
X50760Y-50740D01*
X50709Y-50848D01*
X50680Y-50934D01*
X50666Y-51007D01*
X50652Y-51050D01*
Y-51064D01*
X50659Y-51187D01*
X50687Y-51302D01*
X50716Y-51403D01*
X50760Y-51490D01*
X50803Y-51562D01*
X50839Y-51612D01*
X50875Y-51648D01*
X50882Y-51656D01*
X50947Y-51706D01*
X51012Y-51757D01*
X51070Y-51785D01*
X51127Y-51814D01*
X51178Y-51836D01*
X51214Y-51858D01*
X51243D01*
X51250Y-51865D01*
X51409Y-51879D01*
X51553Y-51850D01*
X51604Y-51843D01*
X51647Y-51829D01*
X51683Y-51822D01*
X51690Y-51814D01*
X51791Y-51771D01*
X51892Y-51713D01*
X52000Y-51648D01*
X52101Y-51576D01*
X52195Y-51511D01*
X52281Y-51454D01*
X52332Y-51418D01*
X52346Y-51403D01*
X52491Y-51302D01*
X52621Y-51201D01*
X52743Y-51122D01*
X52866Y-51043D01*
X52981Y-50970D01*
X53082Y-50913D01*
X53176Y-50848D01*
X53262Y-50805D01*
X53334Y-50761D01*
X53399Y-50725D01*
X53457Y-50696D01*
X53508Y-50675D01*
X53544Y-50653D01*
X53573Y-50639D01*
X53587D01*
X53594Y-50631D01*
X53356Y-50408D01*
X53205Y-50271D01*
X53075Y-50155D01*
X52960Y-50069D01*
X52851Y-50004D01*
X52765Y-49961D01*
X52700Y-49925D01*
X52664Y-49903D01*
X52649D01*
X52498Y-49867D01*
X52354Y-49838D01*
X52209D01*
D02*
G37*
G36*
X42686Y-22972D02*
X41496Y-23084D01*
X41349Y-23096D01*
X41210Y-23099D01*
X41082Y-23105D01*
X40968Y-23103D01*
X40871Y-23100D01*
X40830Y-23101D01*
X40791Y-23096D01*
X40767Y-23101D01*
X40746Y-23096D01*
X40733Y-23098D01*
X40728Y-23097D01*
X40841Y-23167D01*
X40958Y-23245D01*
X41076Y-23322D01*
X41188Y-23398D01*
X41235Y-23434D01*
X41285Y-23464D01*
X41329Y-23493D01*
X41362Y-23519D01*
X41391Y-23539D01*
X41415Y-23556D01*
X41430Y-23566D01*
X41435Y-23568D01*
X42350Y-24227D01*
X42686Y-22972D01*
D02*
G37*
G36*
X45500Y-13657D02*
X44309Y-13769D01*
X44162Y-13782D01*
X44024Y-13785D01*
X43896Y-13791D01*
X43781Y-13789D01*
X43685Y-13786D01*
X43644Y-13786D01*
X43605Y-13782D01*
X43581Y-13787D01*
X43559Y-13781D01*
X43547Y-13783D01*
X43542Y-13782D01*
X43655Y-13853D01*
X43772Y-13930D01*
X43889Y-14007D01*
X44001Y-14083D01*
X44049Y-14119D01*
X44098Y-14150D01*
X44142Y-14178D01*
X44175Y-14205D01*
X44205Y-14224D01*
X44229Y-14242D01*
X44243Y-14252D01*
X44249Y-14253D01*
X45164Y-14912D01*
X45500Y-13657D01*
D02*
G37*
G36*
X47817Y-3157D02*
X46627Y-3269D01*
X46480Y-3282D01*
X46341Y-3285D01*
X46213Y-3291D01*
X46099Y-3289D01*
X46002Y-3286D01*
X45961Y-3286D01*
X45922Y-3282D01*
X45898Y-3287D01*
X45877Y-3281D01*
X45864Y-3283D01*
X45859Y-3282D01*
X45972Y-3353D01*
X46089Y-3430D01*
X46207Y-3507D01*
X46318Y-3583D01*
X46366Y-3619D01*
X46416Y-3650D01*
X46459Y-3678D01*
X46493Y-3705D01*
X46522Y-3724D01*
X46546Y-3742D01*
X46561Y-3751D01*
X46566Y-3753D01*
X47481Y-4412D01*
X47817Y-3157D01*
D02*
G37*
G36*
X50029Y5843D02*
X48838Y5731D01*
X48691Y5718D01*
X48553Y5715D01*
X48425Y5709D01*
X48310Y5711D01*
X48213Y5714D01*
X48173Y5714D01*
X48134Y5718D01*
X48110Y5713D01*
X48088Y5719D01*
X48076Y5717D01*
X48071Y5718D01*
X48184Y5647D01*
X48301Y5570D01*
X48418Y5493D01*
X48530Y5417D01*
X48578Y5381D01*
X48627Y5350D01*
X48671Y5322D01*
X48704Y5295D01*
X48734Y5276D01*
X48758Y5258D01*
X48772Y5249D01*
X48778Y5247D01*
X49693Y4588D01*
X50029Y5843D01*
D02*
G37*
G36*
X47902Y2988D02*
X47827Y2985D01*
X47764Y2985D01*
X47710Y2976D01*
X47662Y2972D01*
X47631Y2963D01*
X47607Y2958D01*
X47593Y2950D01*
X47588Y2952D01*
X47530Y2927D01*
X47477Y2901D01*
X47433Y2867D01*
X47390Y2832D01*
X47318Y2760D01*
X47265Y2688D01*
X47230Y2622D01*
X47203Y2566D01*
X47192Y2546D01*
X47183Y2514D01*
X47173Y2454D01*
X47163Y2393D01*
X47164Y2335D01*
X47173Y2281D01*
X47197Y2177D01*
X47229Y2082D01*
X47272Y2008D01*
X47307Y1946D01*
X47324Y1925D01*
X47338Y1910D01*
X47340Y1898D01*
X47345Y1896D01*
X47400Y1841D01*
X47466Y1789D01*
X47543Y1734D01*
X47629Y1688D01*
X47719Y1641D01*
X47817Y1597D01*
X48013Y1516D01*
X48112Y1478D01*
X48202Y1448D01*
X48287Y1420D01*
X48356Y1401D01*
X48419Y1378D01*
X48467Y1366D01*
X48494Y1358D01*
X48500Y1357D01*
X48505Y1355D01*
X48671Y1311D01*
X48824Y1281D01*
X48961Y1256D01*
X49093Y1233D01*
X49204Y1220D01*
X49312Y1214D01*
X49403Y1213D01*
X49488Y1207D01*
X49558Y1211D01*
X49617Y1218D01*
X49670Y1221D01*
X49713Y1233D01*
X49743Y1236D01*
X49762Y1243D01*
X49775Y1251D01*
X49781Y1249D01*
X49846Y1278D01*
X49900Y1309D01*
X49955Y1341D01*
X49998Y1375D01*
X50076Y1452D01*
X50135Y1522D01*
X50177Y1591D01*
X50202Y1642D01*
X50213Y1662D01*
X50222Y1694D01*
X50232Y1755D01*
X50241Y1810D01*
X50231Y1922D01*
X50207Y2026D01*
X50175Y2120D01*
X50137Y2194D01*
X50102Y2255D01*
X50072Y2292D01*
X50069Y2304D01*
X50064Y2305D01*
X50009Y2360D01*
X49943Y2412D01*
X49866Y2468D01*
X49780Y2513D01*
X49690Y2561D01*
X49592Y2604D01*
X49390Y2687D01*
X49297Y2723D01*
X49207Y2753D01*
X49123Y2782D01*
X49053Y2800D01*
X48990Y2823D01*
X48942Y2836D01*
X48915Y2843D01*
X48904Y2846D01*
X48737Y2885D01*
X48585Y2920D01*
X48443Y2946D01*
X48310Y2965D01*
X48193Y2979D01*
X48085Y2985D01*
X47989Y2988D01*
X47902Y2988D01*
D02*
G37*
%LPD*%
D10*
X9843Y58268D02*
G03*
X9843Y58268I-9843J0D01*
G01*
X9790Y64142D02*
G03*
X9790Y52394I-9790J-5874D01*
G01*
Y64142D01*
D18*
X-55512Y11024D02*
G03*
X-51181Y15354I0J4331D01*
G01*
X-59842D02*
G03*
X-55512Y11024I4331J0D01*
G01*
Y26772D02*
G03*
X-59842Y22441I0J-4331D01*
G01*
X-51181D02*
G03*
X-55512Y26772I-4331J0D01*
G01*
X-59842Y15354D02*
Y22441D01*
X-51181Y15354D02*
Y22441D01*
D61*
X24878Y6434D02*
G03*
X24878Y6434I-492J0D01*
G01*
D62*
X55770Y5744D02*
G03*
X54545Y5037I-259J-966D01*
G01*
X64030Y2495D02*
G03*
X63323Y3720I-966J259D01*
G01*
X61252Y-4007D02*
G03*
X62477Y-3300I259J966D01*
G01*
X52993Y-759D02*
G03*
X53700Y-1984I966J-259D01*
G01*
X53223Y-3763D02*
G03*
X51998Y-4471I-259J-966D01*
G01*
X61482Y-7012D02*
G03*
X60775Y-5787I-966J259D01*
G01*
X58705Y-13515D02*
G03*
X59930Y-12808I259J966D01*
G01*
X50445Y-10266D02*
G03*
X51152Y-11491I966J-259D01*
G01*
X50675Y-13271D02*
G03*
X49451Y-13978I-259J-966D01*
G01*
X58935Y-16519D02*
G03*
X58228Y-15294I-966J259D01*
G01*
X56157Y-23022D02*
G03*
X57382Y-22315I259J966D01*
G01*
X47898Y-19773D02*
G03*
X48605Y-20998I966J-259D01*
G01*
X48141Y-22781D02*
G03*
X46916Y-23488I-259J-966D01*
G01*
X56400Y-26030D02*
G03*
X55693Y-24805I-966J259D01*
G01*
X53623Y-32532D02*
G03*
X54848Y-31825I259J966D01*
G01*
X45363Y-29284D02*
G03*
X46070Y-30509I966J-259D01*
G01*
X3423Y-20738D02*
X6958Y-17202D01*
X-2234Y-15081D02*
X3423Y-20738D01*
X-2234Y-15081D02*
X1302Y-11546D01*
X6958Y-17202D01*
X4262Y-21577D02*
X7798Y-18042D01*
X13454Y-23698D01*
X9919Y-27234D02*
X13454Y-23698D01*
X4262Y-21577D02*
X9919Y-27234D01*
X-34692Y14861D02*
X14861Y-34692D01*
X-8941Y-58494D02*
X14861Y-34692D01*
X-58494Y-8941D02*
X-8941Y-58494D01*
X-58494Y-8941D02*
X-34692Y14861D01*
X34945Y14717D02*
Y20717D01*
X46945D01*
Y14717D02*
Y20717D01*
X34945Y14717D02*
X46945D01*
X3012Y38126D02*
X8012D01*
X3012D02*
Y46126D01*
X8012D01*
Y38126D02*
Y46126D01*
X-2500Y38126D02*
X2500D01*
X-2500D02*
Y46126D01*
X2500D01*
Y38126D02*
Y46126D01*
X-8012Y38126D02*
X-3012D01*
X-8012D02*
Y46126D01*
X-3012D01*
Y38126D02*
Y46126D01*
X24079Y32017D02*
Y37017D01*
X16079Y32017D02*
X24079D01*
X16079D02*
Y37017D01*
X24079D01*
X25059Y32417D02*
X30059Y32417D01*
X25059Y32417D02*
Y40417D01*
X30059D01*
X30059Y32417D02*
X30059Y40417D01*
X16079Y38051D02*
Y43051D01*
X24079D01*
Y38051D02*
Y43051D01*
X16079Y38051D02*
X24079D01*
X25528Y20216D02*
X33528D01*
X25528Y15216D02*
Y20216D01*
Y15216D02*
X33528D01*
Y20216D01*
X21139Y14301D02*
X24675Y17837D01*
X15483Y19958D02*
X21139Y14301D01*
X15483Y19958D02*
X19018Y23494D01*
X24675Y17837D01*
X32146Y-19748D02*
X37146D01*
X32146D02*
Y-11748D01*
X37146Y-11748D01*
Y-19748D02*
Y-11748D01*
X25846Y-11748D02*
X30847D01*
Y-19748D02*
Y-11748D01*
X25846Y-19748D02*
X30847D01*
X25846D02*
Y-11748D01*
X32146Y-20803D02*
X37146D01*
Y-28803D02*
Y-20803D01*
X32146Y-28803D02*
X37146D01*
X32146D02*
Y-20803D01*
X53709Y-1986D02*
X61243Y-4005D01*
X52993Y-759D02*
X54545Y5037D01*
X62477Y-3300D02*
X64030Y2495D01*
X55779Y5741D02*
X63314Y3722D01*
X51161Y-11493D02*
X58696Y-13512D01*
X50445Y-10266D02*
X51998Y-4471D01*
X59930Y-12808D02*
X61482Y-7012D01*
X53232Y-3766D02*
X60766Y-5785D01*
X48614Y-21001D02*
X56148Y-23019D01*
X47898Y-19773D02*
X49451Y-13978D01*
X57382Y-22315D02*
X58935Y-16519D01*
X50684Y-13273D02*
X58219Y-15292D01*
X46079Y-30511D02*
X53614Y-32530D01*
X45363Y-29284D02*
X46916Y-23488D01*
X54848Y-31825D02*
X56400Y-26030D01*
X48150Y-22784D02*
X55684Y-24802D01*
X-48956Y20835D02*
X-49456Y21335D01*
Y22335D01*
X-48956Y22835D01*
X-48456D01*
X-47956Y22335D01*
Y21335D01*
X-47456Y20835D01*
X-46957D01*
X-46457Y21335D01*
Y22335D01*
X-46957Y22835D01*
X-49456Y17836D02*
Y18836D01*
Y18336D01*
X-46957D01*
X-46457Y18836D01*
Y19336D01*
X-46957Y19836D01*
X-49456Y14837D02*
Y16837D01*
X-47956D01*
X-48456Y15837D01*
Y15337D01*
X-47956Y14837D01*
X-46957D01*
X-46457Y15337D01*
Y16337D01*
X-46957Y16837D01*
X5512Y-14173D02*
X7632Y-12053D01*
X6572Y-10992D01*
X5865Y-10992D01*
X5158Y-11699D01*
X5158Y-12406D01*
X6219Y-13466D01*
X5512Y-12760D02*
X4098Y-12760D01*
X3745Y-11699D02*
X3038D01*
X2331Y-10992D01*
X2331Y-10285D01*
X3745Y-8872D01*
X4451Y-8872D01*
X5158Y-9578D01*
Y-10285D01*
X4805Y-10639D01*
X4098Y-10639D01*
X3038Y-9578D01*
X16535Y-26772D02*
X14415Y-24651D01*
X13354Y-25711D01*
X13354Y-26418D01*
X14061Y-27125D01*
X14768Y-27125D01*
X15829Y-26065D01*
X15122Y-26772D02*
X15122Y-28185D01*
X12648Y-27125D02*
X11941D01*
X11234Y-27832D01*
X11234Y-28539D01*
X11587Y-28892D01*
X12294D01*
X12294Y-29599D01*
X12648Y-29953D01*
X13354Y-29953D01*
X14061Y-29246D01*
Y-28539D01*
X13708Y-28185D01*
X13001D01*
X13001Y-27479D01*
X12648Y-27125D01*
X13001Y-28185D02*
X12294Y-28892D01*
X-1621Y19621D02*
X147Y17853D01*
Y17147D01*
X-560Y16440D01*
X-1267Y16440D01*
X-3034Y18207D01*
X-1621Y15379D02*
X-2327Y14672D01*
X-1974Y15026D01*
X-4095Y17147D01*
X-3388D01*
X14500Y36500D02*
X11501D01*
Y35001D01*
X12001Y34501D01*
X13001D01*
X13500Y35001D01*
Y36500D01*
Y35500D02*
X14500Y34501D01*
X11501Y33501D02*
Y31502D01*
X12001D01*
X14000Y33501D01*
X14500D01*
X37008Y-10630D02*
Y-7631D01*
X35508D01*
X35008Y-8131D01*
Y-9130D01*
X35508Y-9630D01*
X37008D01*
X36008D02*
X35008Y-10630D01*
X32010Y-7631D02*
X33009Y-8131D01*
X34009Y-9130D01*
Y-10130D01*
X33509Y-10630D01*
X32509D01*
X32010Y-10130D01*
Y-9630D01*
X32509Y-9130D01*
X34009D01*
X37008Y-33071D02*
Y-30072D01*
X35508D01*
X35008Y-30572D01*
Y-31571D01*
X35508Y-32071D01*
X37008D01*
X36008D02*
X35008Y-33071D01*
X32010Y-30072D02*
X34009D01*
Y-31571D01*
X33009Y-31071D01*
X32509D01*
X32010Y-31571D01*
Y-32571D01*
X32509Y-33071D01*
X33509D01*
X34009Y-32571D01*
X30059Y43051D02*
Y46050D01*
X28559D01*
X28060Y45550D01*
Y44551D01*
X28559Y44051D01*
X30059D01*
X29059D02*
X28060Y43051D01*
X25561D02*
Y46050D01*
X27060Y44551D01*
X25061D01*
X1500Y37000D02*
X-1499D01*
Y35500D01*
X-999Y35001D01*
X0D01*
X500Y35500D01*
Y37000D01*
Y36000D02*
X1500Y35001D01*
X-999Y34001D02*
X-1499Y33501D01*
Y32501D01*
X-999Y32002D01*
X-499D01*
X0Y32501D01*
Y33001D01*
Y32501D01*
X500Y32002D01*
X1000D01*
X1500Y32501D01*
Y33501D01*
X1000Y34001D01*
X-4000Y36500D02*
X-6999D01*
Y35001D01*
X-6499Y34501D01*
X-5500D01*
X-5000Y35001D01*
Y36500D01*
Y35500D02*
X-4000Y34501D01*
Y31502D02*
Y33501D01*
X-5999Y31502D01*
X-6499D01*
X-6999Y32001D01*
Y33001D01*
X-6499Y33501D01*
X7000Y37000D02*
X4001D01*
Y35500D01*
X4501Y35001D01*
X5500D01*
X6000Y35500D01*
Y37000D01*
Y36000D02*
X7000Y35001D01*
Y34001D02*
Y33001D01*
Y33501D01*
X4001D01*
X4501Y34001D01*
X32000Y13999D02*
Y11000D01*
X30001D01*
X29001D02*
X28001D01*
X28501D01*
Y13999D01*
X29001Y13499D01*
X12068Y40914D02*
X11568Y41414D01*
Y42413D01*
X12068Y42913D01*
X14067D01*
X14567Y42413D01*
Y41414D01*
X14067Y40914D01*
X14567Y38415D02*
X11568D01*
X13067Y39914D01*
Y37915D01*
X28709Y-8131D02*
X29209Y-7631D01*
X30209D01*
X30709Y-8131D01*
Y-10130D01*
X30209Y-10630D01*
X29209D01*
X28709Y-10130D01*
X27710Y-8131D02*
X27210Y-7631D01*
X26210D01*
X25710Y-8131D01*
Y-8631D01*
X26210Y-9130D01*
X26710D01*
X26210D01*
X25710Y-9630D01*
Y-10130D01*
X26210Y-10630D01*
X27210D01*
X27710Y-10130D01*
X15353Y24681D02*
X16060Y24681D01*
X16767Y23974D01*
Y23267D01*
X15353Y21853D01*
X14647D01*
X13940Y22560D01*
X13940Y23267D01*
X11466Y25034D02*
X12879Y23621D01*
Y26448D01*
X13233Y26802D01*
X13940Y26802D01*
X14647Y26095D01*
Y25388D01*
X41001Y24999D02*
X41500Y25499D01*
X42500D01*
X43000Y24999D01*
Y23000D01*
X42500Y22500D01*
X41500D01*
X41001Y23000D01*
X40001Y22500D02*
X39001D01*
X39501D01*
Y25499D01*
X40001Y24999D01*
D63*
X9284Y-1569D02*
X11024Y-3309D01*
X12764Y-1569D01*
X-947Y8661D02*
X793Y6921D01*
X-947Y8661D02*
X793Y10401D01*
X9284Y18892D02*
X11024Y20632D01*
X12764Y18892D01*
X21254Y10401D02*
X22994Y8661D01*
X21254Y6921D02*
X22994Y8661D01*
D64*
X-53655Y-23117D02*
X-54480Y-23941D01*
X-54067Y-23529D01*
X-51593Y-26003D01*
X-51181Y-25591D01*
X-52006Y-26415D01*
X-53243Y-27652D02*
X-55717Y-25178D01*
X-54892Y-29302D01*
X-57366Y-26828D01*
X-58191Y-27652D02*
X-59840Y-29302D01*
X-59016Y-28477D01*
X-56542Y-30951D01*
X-48987Y-31084D02*
Y-30259D01*
X-48162Y-29434D01*
X-47337D01*
X-46925Y-29847D01*
Y-30671D01*
X-47750Y-31496D01*
Y-32321D01*
X-47337Y-32733D01*
X-46513Y-32733D01*
X-45688Y-31908D01*
Y-31084D01*
X-51461Y-33558D02*
Y-32733D01*
X-50636Y-31908D01*
X-49811Y-31908D01*
X-48162Y-33558D01*
Y-34383D01*
X-48987Y-35207D01*
X-49811Y-35207D01*
X-52698Y-33970D02*
X-50224Y-36444D01*
X-51873Y-38094D01*
X-31270Y-48800D02*
Y-47976D01*
X-30446Y-47151D01*
X-29621D01*
X-29208Y-47563D01*
Y-48388D01*
X-30033Y-49213D01*
Y-50037D01*
X-29621Y-50450D01*
X-28796Y-50450D01*
X-27971Y-49625D01*
Y-48800D01*
X-32507Y-49213D02*
X-30033Y-51687D01*
X-31270Y-52924D01*
X-32095Y-52924D01*
X-33744Y-51274D01*
Y-50450D01*
X-32507Y-49213D01*
Y-54161D02*
X-34157Y-52511D01*
X-35806D01*
Y-54161D01*
X-34157Y-55810D01*
X-35394Y-54573D01*
X-33744Y-52924D01*
X-27004Y-52595D02*
X-25119Y-54480D01*
X-27004Y-54480D02*
X-25119Y-52595D01*
X-23067Y-56532D02*
X-21182Y-58417D01*
M02*
