G04*
G04 #@! TF.GenerationSoftware,Altium Limited,Altium Designer,19.0.10 (269)*
G04*
G04 Layer_Physical_Order=2*
G04 Layer_Color=16711680*
%FSLAX25Y25*%
%MOIN*%
G70*
G01*
G75*
%ADD10C,0.01000*%
%ADD15C,0.00800*%
%ADD16C,0.02000*%
%ADD17C,0.01200*%
%ADD18C,0.09055*%
%ADD19C,0.15748*%
%ADD20C,0.19685*%
%ADD21C,0.02559*%
%ADD22C,0.03200*%
%ADD23C,0.02400*%
G04:AMPARAMS|DCode=24|XSize=62.99mil|YSize=118.11mil|CornerRadius=0mil|HoleSize=0mil|Usage=FLASHONLY|Rotation=315.000|XOffset=0mil|YOffset=0mil|HoleType=Round|Shape=Rectangle|*
%AMROTATEDRECTD24*
4,1,4,-0.06403,-0.01949,0.01949,0.06403,0.06403,0.01949,-0.01949,-0.06403,-0.06403,-0.01949,0.0*
%
%ADD24ROTATEDRECTD24*%

G04:AMPARAMS|DCode=25|XSize=51.18mil|YSize=177.17mil|CornerRadius=0mil|HoleSize=0mil|Usage=FLASHONLY|Rotation=315.000|XOffset=0mil|YOffset=0mil|HoleType=Round|Shape=Rectangle|*
%AMROTATEDRECTD25*
4,1,4,-0.08073,-0.04454,0.04454,0.08073,0.08073,0.04454,-0.04454,-0.08073,-0.08073,-0.04454,0.0*
%
%ADD25ROTATEDRECTD25*%

G04:AMPARAMS|DCode=26|XSize=39.37mil|YSize=118.11mil|CornerRadius=9.84mil|HoleSize=0mil|Usage=FLASHONLY|Rotation=180.000|XOffset=0mil|YOffset=0mil|HoleType=Round|Shape=RoundedRectangle|*
%AMROUNDEDRECTD26*
21,1,0.03937,0.09843,0,0,180.0*
21,1,0.01968,0.11811,0,0,180.0*
1,1,0.01968,-0.00984,0.04921*
1,1,0.01968,0.00984,0.04921*
1,1,0.01968,0.00984,-0.04921*
1,1,0.01968,-0.00984,-0.04921*
%
%ADD26ROUNDEDRECTD26*%
G04:AMPARAMS|DCode=27|XSize=24.5mil|YSize=26mil|CornerRadius=6.13mil|HoleSize=0mil|Usage=FLASHONLY|Rotation=90.000|XOffset=0mil|YOffset=0mil|HoleType=Round|Shape=RoundedRectangle|*
%AMROUNDEDRECTD27*
21,1,0.02450,0.01375,0,0,90.0*
21,1,0.01225,0.02600,0,0,90.0*
1,1,0.01225,0.00688,0.00613*
1,1,0.01225,0.00688,-0.00613*
1,1,0.01225,-0.00688,-0.00613*
1,1,0.01225,-0.00688,0.00613*
%
%ADD27ROUNDEDRECTD27*%
G04:AMPARAMS|DCode=28|XSize=24.5mil|YSize=26mil|CornerRadius=6.13mil|HoleSize=0mil|Usage=FLASHONLY|Rotation=180.000|XOffset=0mil|YOffset=0mil|HoleType=Round|Shape=RoundedRectangle|*
%AMROUNDEDRECTD28*
21,1,0.02450,0.01375,0,0,180.0*
21,1,0.01225,0.02600,0,0,180.0*
1,1,0.01225,-0.00613,0.00688*
1,1,0.01225,0.00613,0.00688*
1,1,0.01225,0.00613,-0.00688*
1,1,0.01225,-0.00613,-0.00688*
%
%ADD28ROUNDEDRECTD28*%
G04:AMPARAMS|DCode=29|XSize=35mil|YSize=41mil|CornerRadius=8.75mil|HoleSize=0mil|Usage=FLASHONLY|Rotation=0.000|XOffset=0mil|YOffset=0mil|HoleType=Round|Shape=RoundedRectangle|*
%AMROUNDEDRECTD29*
21,1,0.03500,0.02350,0,0,0.0*
21,1,0.01750,0.04100,0,0,0.0*
1,1,0.01750,0.00875,-0.01175*
1,1,0.01750,-0.00875,-0.01175*
1,1,0.01750,-0.00875,0.01175*
1,1,0.01750,0.00875,0.01175*
%
%ADD29ROUNDEDRECTD29*%
G04:AMPARAMS|DCode=30|XSize=24.5mil|YSize=26mil|CornerRadius=6.13mil|HoleSize=0mil|Usage=FLASHONLY|Rotation=135.000|XOffset=0mil|YOffset=0mil|HoleType=Round|Shape=RoundedRectangle|*
%AMROUNDEDRECTD30*
21,1,0.02450,0.01375,0,0,135.0*
21,1,0.01225,0.02600,0,0,135.0*
1,1,0.01225,0.00053,0.00919*
1,1,0.01225,0.00919,0.00053*
1,1,0.01225,-0.00053,-0.00919*
1,1,0.01225,-0.00919,-0.00053*
%
%ADD30ROUNDEDRECTD30*%
%ADD31P,0.15033X4X180.0*%
G04:AMPARAMS|DCode=32|XSize=9.84mil|YSize=23.62mil|CornerRadius=0mil|HoleSize=0mil|Usage=FLASHONLY|Rotation=135.000|XOffset=0mil|YOffset=0mil|HoleType=Round|Shape=Round|*
%AMOVALD32*
21,1,0.01378,0.00984,0.00000,0.00000,225.0*
1,1,0.00984,0.00487,0.00487*
1,1,0.00984,-0.00487,-0.00487*
%
%ADD32OVALD32*%

G04:AMPARAMS|DCode=33|XSize=9.84mil|YSize=23.62mil|CornerRadius=0mil|HoleSize=0mil|Usage=FLASHONLY|Rotation=45.000|XOffset=0mil|YOffset=0mil|HoleType=Round|Shape=Round|*
%AMOVALD33*
21,1,0.01378,0.00984,0.00000,0.00000,135.0*
1,1,0.00984,0.00487,-0.00487*
1,1,0.00984,-0.00487,0.00487*
%
%ADD33OVALD33*%

G04:AMPARAMS|DCode=34|XSize=36mil|YSize=51mil|CornerRadius=9mil|HoleSize=0mil|Usage=FLASHONLY|Rotation=270.000|XOffset=0mil|YOffset=0mil|HoleType=Round|Shape=RoundedRectangle|*
%AMROUNDEDRECTD34*
21,1,0.03600,0.03300,0,0,270.0*
21,1,0.01800,0.05100,0,0,270.0*
1,1,0.01800,-0.01650,-0.00900*
1,1,0.01800,-0.01650,0.00900*
1,1,0.01800,0.01650,0.00900*
1,1,0.01800,0.01650,-0.00900*
%
%ADD34ROUNDEDRECTD34*%
G04:AMPARAMS|DCode=35|XSize=19.68mil|YSize=39.37mil|CornerRadius=0mil|HoleSize=0mil|Usage=FLASHONLY|Rotation=165.000|XOffset=0mil|YOffset=0mil|HoleType=Round|Shape=Round|*
%AMOVALD35*
21,1,0.01968,0.01968,0.00000,0.00000,255.0*
1,1,0.01968,0.00255,0.00951*
1,1,0.01968,-0.00255,-0.00951*
%
%ADD35OVALD35*%

G36*
X50884Y-24034D02*
X51217Y-24123D01*
X51217D01*
X49405Y-30885D01*
X49072Y-30795D01*
X48454Y-30490D01*
X47907Y-30071D01*
X47453Y-29553D01*
X47108Y-28955D01*
X46886Y-28303D01*
X46796Y-27619D01*
X46841Y-26931D01*
X46931Y-26598D01*
X46931Y-26598D01*
X47020Y-26265D01*
X47325Y-25647D01*
X47744Y-25100D01*
X48263Y-24645D01*
X48860Y-24300D01*
X49513Y-24079D01*
X50196Y-23989D01*
X50884Y-24034D01*
D02*
G37*
G36*
X52691Y-24518D02*
X53309Y-24823D01*
X53856Y-25243D01*
X54311Y-25761D01*
X54656Y-26358D01*
X54877Y-27011D01*
X54967Y-27694D01*
X54922Y-28383D01*
X54833Y-28715D01*
X54744Y-29048D01*
X54439Y-29667D01*
X54019Y-30214D01*
X53501Y-30668D01*
X52904Y-31013D01*
X52251Y-31235D01*
X51567Y-31325D01*
X50879Y-31280D01*
X50546Y-31190D01*
Y-31190D01*
X52358Y-24429D01*
X52691Y-24518D01*
D02*
G37*
G36*
X53419Y-14523D02*
X53752Y-14613D01*
X53752Y-14613D01*
X51940Y-21374D01*
X51607Y-21285D01*
X50989Y-20980D01*
X50442Y-20560D01*
X49987Y-20042D01*
X49642Y-19445D01*
X49421Y-18792D01*
X49331Y-18108D01*
X49376Y-17420D01*
X49465Y-17087D01*
Y-17087D01*
X49554Y-16755D01*
X49859Y-16136D01*
X50279Y-15589D01*
X50797Y-15135D01*
X51394Y-14790D01*
X52047Y-14568D01*
X52731Y-14478D01*
X53419Y-14523D01*
D02*
G37*
G36*
X55226Y-15008D02*
X55844Y-15312D01*
X56391Y-15732D01*
X56846Y-16250D01*
X57190Y-16848D01*
X57412Y-17500D01*
X57502Y-18184D01*
X57457Y-18872D01*
X57367Y-19205D01*
X57367Y-19205D01*
X57278Y-19538D01*
X56973Y-20156D01*
X56554Y-20703D01*
X56035Y-21158D01*
X55438Y-21502D01*
X54785Y-21724D01*
X54102Y-21814D01*
X53414Y-21769D01*
X53081Y-21680D01*
Y-21680D01*
X54893Y-14918D01*
X55226Y-15008D01*
D02*
G37*
G36*
X55966Y-5016D02*
X56299Y-5105D01*
X56299D01*
X54488Y-11867D01*
X54154Y-11778D01*
X53536Y-11473D01*
X52989Y-11053D01*
X52535Y-10535D01*
X52190Y-9938D01*
X51968Y-9285D01*
X51878Y-8601D01*
X51923Y-7913D01*
X52013Y-7580D01*
X52013Y-7580D01*
X52102Y-7247D01*
X52407Y-6629D01*
X52826Y-6082D01*
X53345Y-5627D01*
X53942Y-5283D01*
X54595Y-5061D01*
X55278Y-4971D01*
X55966Y-5016D01*
D02*
G37*
G36*
X57773Y-5500D02*
X58391Y-5805D01*
X58938Y-6225D01*
X59393Y-6743D01*
X59738Y-7340D01*
X59959Y-7993D01*
X60049Y-8677D01*
X60004Y-9365D01*
X59915Y-9698D01*
X59915Y-9698D01*
X59826Y-10031D01*
X59521Y-10649D01*
X59101Y-11196D01*
X58583Y-11651D01*
X57986Y-11995D01*
X57333Y-12217D01*
X56649Y-12307D01*
X55961Y-12262D01*
X55628Y-12173D01*
X55628Y-12173D01*
X57440Y-5411D01*
X57773Y-5500D01*
D02*
G37*
G36*
X58514Y4491D02*
X58847Y4402D01*
X58847Y4402D01*
X57035Y-2360D01*
X56702Y-2271D01*
X56084Y-1966D01*
X55537Y-1546D01*
X55082Y-1028D01*
X54737Y-430D01*
X54516Y222D01*
X54426Y906D01*
X54471Y1594D01*
X54560Y1927D01*
X54560Y1927D01*
X54649Y2260D01*
X54954Y2878D01*
X55374Y3425D01*
X55892Y3880D01*
X56489Y4224D01*
X57142Y4446D01*
X57826Y4536D01*
X58514Y4491D01*
D02*
G37*
G36*
X60321Y4007D02*
X60939Y3702D01*
X61486Y3282D01*
X61940Y2764D01*
X62285Y2167D01*
X62507Y1514D01*
X62597Y830D01*
X62552Y142D01*
X62462Y-191D01*
X62462D01*
X62373Y-524D01*
X62068Y-1142D01*
X61648Y-1689D01*
X61130Y-2143D01*
X60533Y-2488D01*
X59880Y-2710D01*
X59197Y-2800D01*
X58509Y-2755D01*
X58176Y-2665D01*
X58176D01*
X59987Y4096D01*
X60321Y4007D01*
D02*
G37*
D10*
X-66116Y-46169D02*
X-57764D01*
Y-46736D02*
Y-46169D01*
X-39081Y-53000D02*
X-25779Y-39698D01*
X-51500Y-53000D02*
X-39081D01*
X-57764Y-46736D02*
X-51500Y-53000D01*
X-3613Y17731D02*
Y34131D01*
Y17731D02*
X2672Y11445D01*
X-1814Y18715D02*
Y34093D01*
Y18715D02*
X4064Y12837D01*
X-13Y19699D02*
Y33231D01*
X0Y44026D02*
Y46530D01*
X-2500Y49030D02*
X0Y46530D01*
X-2500Y49030D02*
Y58268D01*
X-5512Y36029D02*
X-3613Y34131D01*
X-5512Y36029D02*
Y40226D01*
X0Y35906D02*
Y40226D01*
X-1814Y34093D02*
X0Y35906D01*
X5512Y38756D02*
Y40226D01*
X-13Y33231D02*
X5512Y38756D01*
X6848Y48848D02*
Y57616D01*
X5512Y47512D02*
X6848Y48848D01*
X5512Y44026D02*
Y47512D01*
X6848Y57616D02*
X7500Y58268D01*
X-7500Y49000D02*
Y58268D01*
Y49000D02*
X-5512Y47012D01*
Y44026D02*
Y47012D01*
X-13Y19699D02*
X5456Y14229D01*
D15*
X19441Y-48393D02*
Y-31267D01*
X6299Y-18125D02*
X19441Y-31267D01*
X6299Y-18125D02*
Y-1631D01*
X19441Y-48393D02*
X30511Y-59464D01*
X32344Y8661D02*
X58047D01*
X28168Y12837D02*
X32344Y8661D01*
X20767Y12837D02*
X28168D01*
X58047Y8661D02*
X63584Y14198D01*
X34694Y-4724D02*
X40551Y-10582D01*
X29977Y-4724D02*
X34694D01*
X40551Y-21260D02*
Y-10582D01*
X6299Y18954D02*
Y20866D01*
X2756Y19713D02*
Y21260D01*
X25000Y34517D02*
X27559D01*
X21979D02*
X25000D01*
Y32500D02*
Y34517D01*
Y32500D02*
X25779Y31721D01*
Y25779D02*
Y31721D01*
X21979Y34517D02*
X21979Y34517D01*
X-27511Y-12992D02*
X-982D01*
X-32017Y-8486D02*
X-27511Y-12992D01*
X-36325Y-8486D02*
X-32017D01*
X-42660Y-14821D02*
X-36325Y-8486D01*
X6299Y-1631D02*
X8240Y310D01*
X1499Y1921D02*
X4064Y4486D01*
X1499Y-10511D02*
Y1921D01*
X-982Y-12992D02*
X1499Y-10511D01*
X3099Y737D02*
X5456Y3094D01*
X3099Y-11174D02*
Y737D01*
X-406Y-14679D02*
X3099Y-11174D01*
X4699Y-447D02*
X6848Y1702D01*
X4699Y-11836D02*
Y-447D01*
X-13Y-16549D02*
X4699Y-11836D01*
X-28598Y-14679D02*
X-406D01*
X-16549Y-16549D02*
X-13D01*
X-28740Y-28740D02*
X-16549Y-16549D01*
X-35700Y-21780D02*
X-28598Y-14679D01*
X52362Y2756D02*
X52827Y2291D01*
X53200D01*
X50336Y-17499D02*
X51002D01*
X48392D02*
X50336D01*
X50790Y-17621D01*
X47680Y-16788D02*
X50336Y-17499D01*
X47680Y-16788D02*
X48392Y-17499D01*
X40551Y-21260D02*
X46301Y-27010D01*
X48467D01*
X17323Y25591D02*
X18179Y26447D01*
Y34517D01*
Y40551D01*
X24803Y-3937D02*
Y-2334D01*
X17983Y4486D02*
X24803Y-2334D01*
X19375Y5878D02*
X29977Y-4724D01*
X16929Y-2362D02*
Y-28D01*
X15199Y1702D02*
X16929Y-28D01*
X16591Y3094D02*
X21654Y-1969D01*
Y-13848D02*
Y-1969D01*
X11024Y-2995D02*
Y-2474D01*
X13807Y310D01*
X19375Y11445D02*
X20767Y12837D01*
X-4371Y-1165D02*
X2672Y5878D01*
X-4371Y-4371D02*
Y-1165D01*
X50790Y-17621D02*
X51002Y-17499D01*
X2756Y19713D02*
X6848Y15621D01*
X53549Y-7992D02*
X53549Y-7992D01*
X49892Y-7012D02*
X53549Y-7992D01*
X6299Y18954D02*
X8240Y17013D01*
X53200Y2291D02*
X56096Y1515D01*
X14567Y17773D02*
Y22835D01*
X13807Y17013D02*
X14567Y17773D01*
X21422Y17554D02*
X21585Y17717D01*
X21654Y-13848D02*
X27559D01*
Y-17648D02*
X27559Y-17648D01*
X33465D01*
X25779Y-19428D02*
X27559Y-17648D01*
X25779Y-25779D02*
Y-19428D01*
D16*
X-21780Y18220D02*
X-9000Y31000D01*
X37500Y13000D02*
X37645Y13145D01*
Y17717D01*
X31428D02*
X37645D01*
X-25779Y-39698D02*
X-21780Y-35700D01*
X-12806Y-26725D01*
Y-26500D01*
X-21780Y-5455D02*
Y18220D01*
X2500Y50000D02*
Y58268D01*
D17*
X-31612Y-31612D02*
X-28740Y-28740D01*
X-55304Y-31612D02*
X-31612D01*
X-57764Y-34072D02*
X-55304Y-31612D01*
X-43280Y-29361D02*
X-35700Y-21780D01*
X-58894Y-29361D02*
X-43280D01*
X-65785Y-36252D02*
X-58894Y-29361D01*
X-57764Y-37510D02*
Y-34072D01*
X-65785Y-37179D02*
Y-36252D01*
X-66116Y-37510D02*
X-65785Y-37179D01*
X16591Y14229D02*
X19916Y17554D01*
X21422D01*
X21585Y17717D02*
X27628D01*
X27500Y41500D02*
X27559Y41441D01*
Y38317D02*
Y41441D01*
X33465Y-11035D02*
X33500Y-11000D01*
X33465Y-13848D02*
Y-11035D01*
D18*
X30511Y-59464D02*
D03*
X63584Y14198D02*
D03*
X25779Y25779D02*
D03*
X-30511Y59464D02*
D03*
X-12806Y-63305D02*
D03*
X-63584Y-14198D02*
D03*
X-12528Y12528D02*
D03*
X12528Y-12528D02*
D03*
X-4371Y-4371D02*
D03*
X25779Y-25779D02*
D03*
X-25779Y25779D02*
D03*
D19*
X-41758Y-41758D02*
D03*
Y41758D02*
D03*
X41758D02*
D03*
Y-41758D02*
D03*
D20*
X-66929Y66929D02*
D03*
X66929D02*
D03*
Y-66929D02*
D03*
X-66929D02*
D03*
D21*
X-72235Y72527D02*
D03*
X-74558Y68248D02*
D03*
X-73922Y63422D02*
D03*
X-70571Y59891D02*
D03*
X-65785Y59004D02*
D03*
X-61391Y61100D02*
D03*
X-59068Y65378D02*
D03*
X-59704Y70205D02*
D03*
X-63055Y73736D02*
D03*
X-67842Y74622D02*
D03*
X74622Y67842D02*
D03*
X73736Y63055D02*
D03*
X70205Y59704D02*
D03*
X65378Y59068D02*
D03*
X61100Y61391D02*
D03*
X59004Y65785D02*
D03*
X59891Y70571D02*
D03*
X63422Y73922D02*
D03*
X68248Y74558D02*
D03*
X72527Y72235D02*
D03*
X67842Y-74622D02*
D03*
X63055Y-73736D02*
D03*
X59704Y-70205D02*
D03*
X59068Y-65378D02*
D03*
X61391Y-61100D02*
D03*
X65785Y-59004D02*
D03*
X70571Y-59891D02*
D03*
X73922Y-63422D02*
D03*
X74558Y-68248D02*
D03*
X72235Y-72527D02*
D03*
X-74622Y-67842D02*
D03*
X-73736Y-63055D02*
D03*
X-70205Y-59704D02*
D03*
X-65378Y-59068D02*
D03*
X-61100Y-61391D02*
D03*
X-59004Y-65785D02*
D03*
X-59891Y-70571D02*
D03*
X-63422Y-73922D02*
D03*
X-68248Y-74558D02*
D03*
X-72527Y-72235D02*
D03*
D22*
X-9000Y31000D02*
D03*
X37500Y13000D02*
D03*
X-12806Y-26500D02*
D03*
X-21780Y-5455D02*
D03*
X2500Y50000D02*
D03*
D23*
X13112Y6573D02*
D03*
X8936D02*
D03*
Y10749D02*
D03*
X13112D02*
D03*
X27500Y41500D02*
D03*
X33500Y-11000D02*
D03*
X6299Y20866D02*
D03*
X2756Y21260D02*
D03*
X52362Y2756D02*
D03*
X49892Y-7012D02*
D03*
X47680Y-16788D02*
D03*
X17323Y25591D02*
D03*
X24803Y-3937D02*
D03*
X16929Y-2362D02*
D03*
X11024Y-2995D02*
D03*
X14567Y22835D02*
D03*
D24*
X9817Y-35282D02*
D03*
X-35282Y9817D02*
D03*
D25*
X-14821Y-42660D02*
D03*
X-21780Y-35700D02*
D03*
X-28740Y-28740D02*
D03*
X-35700Y-21780D02*
D03*
X-42660Y-14821D02*
D03*
D26*
X7500Y58268D02*
D03*
X2500D02*
D03*
X-2500D02*
D03*
X-7500D02*
D03*
D27*
X5512Y40226D02*
D03*
Y44026D02*
D03*
X0Y40226D02*
D03*
Y44026D02*
D03*
X-5512Y40226D02*
D03*
Y44026D02*
D03*
X27559Y34517D02*
D03*
X27559Y38317D02*
D03*
Y-17648D02*
D03*
Y-13848D02*
D03*
X21654D02*
D03*
Y-17648D02*
D03*
X33465D02*
D03*
Y-13848D02*
D03*
D28*
X21979Y34517D02*
D03*
X18179Y34517D02*
D03*
Y40551D02*
D03*
X21979Y40551D02*
D03*
X27628Y17717D02*
D03*
X31428D02*
D03*
D29*
X44245Y17717D02*
D03*
X37645Y17717D02*
D03*
D30*
X21422Y17554D02*
D03*
X18735Y20241D02*
D03*
D31*
X11024Y8661D02*
D03*
D32*
X19375Y11445D02*
D03*
X17983Y12837D02*
D03*
X16591Y14229D02*
D03*
X15199Y15621D02*
D03*
X13807Y17013D02*
D03*
X2672Y5878D02*
D03*
X4064Y4486D02*
D03*
X5456Y3094D02*
D03*
X6848Y1702D02*
D03*
X8240Y310D02*
D03*
D33*
Y17013D02*
D03*
X6848Y15621D02*
D03*
X5456Y14229D02*
D03*
X4064Y12837D02*
D03*
X2672Y11445D02*
D03*
X13807Y310D02*
D03*
X15199Y1702D02*
D03*
X16591Y3094D02*
D03*
X17983Y4486D02*
D03*
X19375Y5878D02*
D03*
D34*
X-66116Y-46169D02*
D03*
Y-38769D02*
D03*
X-57764Y-46169D02*
D03*
Y-38769D02*
D03*
D35*
X60926Y221D02*
D03*
X56096Y1515D02*
D03*
X58379Y-9286D02*
D03*
X53549Y-7992D02*
D03*
X55831Y-18793D02*
D03*
X51002Y-17499D02*
D03*
X53297Y-28304D02*
D03*
X48467Y-27010D02*
D03*
M02*
